<?xml version="1.0" encoding="utf-8"?>
<!-- Generator: Adobe Illustrator 19.2.1, SVG Export Plug-In . SVG Version: 6.00 Build 0)  -->
<svg version="1.1" id="Capa_1" xmlns="http://www.w3.org/2000/svg" xmlns:xlink="http://www.w3.org/1999/xlink" x="0px" y="0px"
	 viewBox="0 0 204 43" style="enable-background:new 0 0 204 43;" xml:space="preserve">
<style type="text/css">
	.st0{fill:#E30613;}
</style>
<path class="st0" d="M91,22c-2.2-2.2-4.9-3.3-7.9-3.3s-5.6,1.1-7.8,3.3c-2.2,2.2-3.3,4.9-3.3,8c0,3.1,1.1,5.7,3.3,7.9
	c2.1,2.2,4.8,3.3,7.8,3.3s5.7-1.1,7.9-3.3c2.2-2.2,3.2-4.8,3.2-7.9C94.2,26.9,93.1,24.3,91,22 M87.3,34.2c-1.1,1.2-2.5,1.7-4.1,1.7
	c-1.6,0-3-0.6-4.1-1.7c-1.1-1.2-1.7-2.6-1.7-4.2c0-1.7,0.6-3.1,1.7-4.2c1.1-1.2,2.5-1.7,4.1-1.7c1.6-0.1,3,0.5,4.2,1.7
	c1.1,1.1,1.6,2.5,1.7,4.2C88.9,31.6,88.4,33,87.3,34.2"/>
<path class="st0" d="M13,13.3c-3.8-0.1-7,1.3-9.7,4.1c-2.7,2.7-4,5.9-4,9.8c0,3.8,1.3,7.1,4,9.8c2.7,2.7,5.8,4,9.7,4
	c3.1,0,5.9-0.9,8.3-2.8c2.4-1.9,4-4.4,4.8-7.3h-5.6c-0.7,1.4-1.7,2.6-3,3.5c-1.4,0.9-2.9,1.3-4.6,1.3c-2.4,0-4.4-0.9-6-2.5
	c-1.7-1.7-2.5-3.7-2.5-6c0-2.4,0.8-4.4,2.5-6.1c1.6-1.6,3.6-2.5,6-2.5c1.6,0,3.1,0.5,4.6,1.4c1.3,0.9,2.3,2.1,3,3.5h5.6
	c-0.8-3-2.4-5.4-4.8-7.3C18.9,14.2,16.1,13.2,13,13.3"/>
<path class="st0" d="M46.8,18.7c-3.6-0.1-6.1,0.9-7.5,2.8c-0.9,1.2-1.4,2.7-1.5,4.7h5.3c0.1-0.9,0.4-1.5,0.8-1.9
	c0.6-0.7,1.5-1.1,2.8-1c1.1-0.1,2,0.2,2.6,0.5c0.6,0.3,0.9,0.9,0.9,1.8c0,0.7-0.4,1.3-1.2,1.6l-4.1,0.7c-1.9,0.3-3.4,0.7-4.6,1.4
	c-2,1.2-3,3.1-2.9,5.8c-0.1,1.9,0.6,3.4,1.8,4.6c1.1,0.9,2.6,1.4,4.4,1.5c2.9-0.1,5.2-0.8,6.9-2.2v2.2h5.3V25.4
	c0-2.6-0.9-4.4-2.7-5.3C51.1,19.1,49.1,18.7,46.8,18.7 M49,30.8l1-0.6v2.2c0,1.8-0.5,3.1-1.5,3.8c-1,0.7-2.1,1.1-3.3,1.1
	c-0.8,0-1.4-0.2-1.9-0.6c-0.5-0.5-0.8-1.1-0.8-2.1c0-1.1,0.4-1.8,1.3-2.4c0.5-0.3,1.4-0.6,2.5-0.7L49,30.8z"/>
<rect x="28.9" y="13.3" class="st0" width="5.3" height="27.8"/>
<g>
	<path class="st0" d="M68.1,19.5c-1.4,0.6-2.7,1.5-3.8,3v-2.7l-5.1,0v21.3h5.3V30.9c0-1.7,0.2-3,0.7-3.7c0.4-0.8,1-1.5,1.8-2
		c0.9-0.6,1.9-0.9,2.9-0.9l1.6,0.1l0-5.4l-1.4,0.1L68.1,19.5z"/>
</g>
<rect x="90.8" y="9.1" transform="matrix(0.7067 -0.7075 0.7075 0.7067 21.1889 74.0305)" class="st0" width="18.2" height="4.8"/>
<rect x="81.4" y="0.7" class="st0" width="4.8" height="13.8"/>
<rect x="97.5" y="24.9" class="st0" width="14.1" height="4.8"/>
<g>
	<path d="M124.1,34.9l3.5-12.7h5.3l-6.4,18.9h-4.8l-6.4-18.9h5.3L124.1,34.9z"/>
	<path d="M135.1,17.3c0-0.8,0.3-1.4,0.8-1.9c0.5-0.5,1.2-0.7,2.1-0.7c0.9,0,1.5,0.2,2.1,0.7c0.5,0.5,0.8,1.1,0.8,1.9
		c0,0.8-0.3,1.4-0.8,1.9c-0.5,0.5-1.2,0.7-2.1,0.7s-1.5-0.2-2.1-0.7C135.3,18.7,135.1,18.1,135.1,17.3z M140.4,41.1h-5.1V22.2h5.1
		V41.1z"/>
	<path d="M143.8,31.5c0-2.9,0.7-5.3,2-7s3.1-2.6,5.4-2.6c1.8,0,3.4,0.7,4.6,2.1v-9.6h5.1v26.8h-4.6l-0.2-2c-1.3,1.6-2.9,2.4-4.9,2.4
		c-2.2,0-4-0.9-5.4-2.6C144.5,37.1,143.8,34.6,143.8,31.5z M148.8,31.9c0,1.8,0.3,3.1,0.9,4.1c0.6,0.9,1.5,1.4,2.7,1.4
		c1.6,0,2.7-0.7,3.3-2v-7.5c-0.6-1.3-1.7-2-3.3-2C150.1,25.9,148.8,27.9,148.8,31.9z"/>
	<path d="M173.4,41.5c-2.8,0-5-0.8-6.8-2.5c-1.7-1.7-2.6-4-2.6-6.8v-0.5c0-1.9,0.4-3.6,1.1-5.1s1.8-2.6,3.1-3.5
		c1.3-0.8,2.9-1.2,4.6-1.2c2.6,0,4.6,0.8,6.1,2.4c1.5,1.6,2.2,3.9,2.2,6.9v2.1h-12c0.2,1.2,0.7,2.2,1.5,3s1.9,1.1,3.1,1.1
		c1.9,0,3.5-0.7,4.6-2.1l2.5,2.8c-0.8,1.1-1.8,1.9-3.1,2.5S175,41.5,173.4,41.5z M172.8,25.9c-1,0-1.8,0.3-2.4,1
		c-0.6,0.7-1,1.6-1.2,2.9h7v-0.4c0-1.1-0.3-2-0.9-2.6C174.7,26.2,173.9,25.9,172.8,25.9z"/>
	<path d="M183.3,31.5c0-1.9,0.4-3.5,1.1-5c0.7-1.5,1.8-2.6,3.1-3.4c1.4-0.8,2.9-1.2,4.7-1.2c2.5,0,4.6,0.8,6.2,2.3s2.5,3.7,2.7,6.4
		l0,1.3c0,2.9-0.8,5.2-2.4,7c-1.6,1.8-3.8,2.6-6.5,2.6c-2.7,0-4.9-0.9-6.5-2.6c-1.6-1.7-2.4-4.1-2.4-7.1V31.5z M188.3,31.8
		c0,1.8,0.3,3.2,1,4.1c0.7,1,1.6,1.4,2.9,1.4c1.2,0,2.2-0.5,2.9-1.4c0.7-0.9,1-2.4,1-4.5c0-1.8-0.3-3.1-1-4.1
		c-0.7-1-1.7-1.5-2.9-1.5c-1.2,0-2.2,0.5-2.9,1.4S188.3,29.8,188.3,31.8z"/>
</g>
</svg>
