<?xml version="1.0" encoding="utf-8"?>
<!-- Generator: Adobe Illustrator 19.2.1, SVG Export Plug-In . SVG Version: 6.00 Build 0)  -->
<svg version="1.1" id="Capa_1" xmlns="http://www.w3.org/2000/svg" xmlns:xlink="http://www.w3.org/1999/xlink" x="0px" y="0px"
	 viewBox="0 0 205 45" style="enable-background:new 0 0 205 45;" xml:space="preserve">
<style type="text/css">
	.st0{fill:#E30613;}
	.st1{fill:#FFFFFF;}
</style>
<path class="st0" d="M93.9,22.6c-2.2-2.2-4.9-3.3-7.9-3.3s-5.6,1.1-7.8,3.3c-2.2,2.2-3.3,4.9-3.3,8c0,3.1,1.1,5.7,3.3,7.9
	c2.1,2.2,4.8,3.3,7.8,3.3s5.7-1.1,7.9-3.3c2.2-2.2,3.2-4.8,3.2-7.9C97.1,27.4,96,24.8,93.9,22.6 M90.1,34.7
	c-1.1,1.2-2.5,1.7-4.1,1.7c-1.6,0-3-0.6-4.1-1.7c-1.1-1.2-1.7-2.6-1.7-4.2c0-1.7,0.6-3.1,1.7-4.2c1.1-1.2,2.5-1.7,4.1-1.7
	c1.6-0.1,3,0.5,4.2,1.7c1.1,1.1,1.6,2.5,1.7,4.2C91.8,32.1,91.3,33.5,90.1,34.7"/>
<path class="st0" d="M15.9,13.8c-3.8-0.1-7,1.3-9.7,4.1c-2.7,2.7-4,5.9-4,9.8c0,3.8,1.3,7.1,4,9.8c2.7,2.7,5.8,4,9.7,4
	c3.1,0,5.9-0.9,8.3-2.8c2.4-1.9,4-4.4,4.8-7.3h-5.6c-0.7,1.4-1.7,2.6-3,3.5c-1.4,0.9-2.9,1.3-4.6,1.3c-2.4,0-4.4-0.9-6-2.5
	c-1.7-1.7-2.5-3.7-2.5-6c0-2.4,0.8-4.4,2.5-6.1c1.6-1.6,3.6-2.5,6-2.5c1.6,0,3.1,0.5,4.6,1.4c1.3,0.9,2.3,2.1,3,3.5H29
	c-0.8-3-2.4-5.4-4.8-7.3C21.8,14.7,18.9,13.7,15.9,13.8"/>
<path class="st0" d="M49.7,19.2c-3.6-0.1-6.1,0.9-7.5,2.8c-0.9,1.2-1.4,2.7-1.5,4.7h5.3c0.1-0.9,0.4-1.5,0.8-1.9
	c0.6-0.7,1.5-1.1,2.8-1c1.1-0.1,2,0.2,2.6,0.5c0.6,0.3,0.9,0.9,0.9,1.8c0,0.7-0.4,1.3-1.2,1.6l-4.1,0.7c-1.9,0.3-3.4,0.7-4.6,1.4
	c-2,1.2-3,3.1-2.9,5.8c-0.1,1.9,0.6,3.4,1.8,4.6c1.1,0.9,2.6,1.4,4.4,1.5c2.9-0.1,5.2-0.8,6.9-2.2v2.2h5.3V25.9
	c0-2.6-0.9-4.4-2.7-5.3C54,19.6,52,19.2,49.7,19.2 M51.9,31.3l1-0.6v2.2c0,1.8-0.5,3.1-1.5,3.8c-1,0.7-2.1,1.1-3.3,1.1
	c-0.8,0-1.4-0.2-1.9-0.6c-0.5-0.5-0.8-1.1-0.8-2.1c0-1.1,0.4-1.8,1.3-2.4c0.5-0.3,1.4-0.6,2.5-0.7L51.9,31.3z"/>
<rect x="31.7" y="13.8" class="st0" width="5.3" height="27.8"/>
<g>
	<path class="st0" d="M71,20c-1.4,0.6-2.7,1.5-3.8,3v-2.7l-5.1,0v21.3h5.3V31.4c0-1.7,0.2-3,0.7-3.7c0.4-0.8,1-1.5,1.8-2
		c0.9-0.6,1.9-0.9,2.9-0.9l1.6,0.1l0-5.4L73,19.4L71,20z"/>
</g>
<rect x="93.7" y="9.6" transform="matrix(0.7067 -0.7075 0.7075 0.7067 21.6696 76.2237)" class="st0" width="18.2" height="4.8"/>
<rect x="84.3" y="1.2" class="st0" width="4.8" height="13.8"/>
<rect x="100.4" y="25.4" class="st0" width="14.1" height="4.8"/>
<g>
	<path class="st1" d="M127,35.5l3.5-12.7h5.3l-6.4,18.9h-4.8l-6.4-18.9h5.3L127,35.5z"/>
	<path class="st1" d="M138,17.9c0-0.8,0.3-1.4,0.8-1.9c0.5-0.5,1.2-0.7,2.1-0.7c0.9,0,1.5,0.2,2.1,0.7c0.5,0.5,0.8,1.1,0.8,1.9
		c0,0.8-0.3,1.4-0.8,1.9c-0.5,0.5-1.2,0.7-2.1,0.7s-1.5-0.2-2.1-0.7C138.2,19.2,138,18.6,138,17.9z M143.3,41.6h-5.1V22.7h5.1V41.6z
		"/>
	<path class="st1" d="M146.7,32c0-2.9,0.7-5.3,2-7s3.1-2.6,5.4-2.6c1.8,0,3.4,0.7,4.6,2.1v-9.6h5.1v26.8h-4.6l-0.2-2
		c-1.3,1.6-2.9,2.4-4.9,2.4c-2.2,0-4-0.9-5.4-2.6C147.4,37.6,146.7,35.2,146.7,32z M151.7,32.4c0,1.8,0.3,3.1,0.9,4.1
		c0.6,0.9,1.5,1.4,2.7,1.4c1.6,0,2.7-0.7,3.3-2v-7.5c-0.6-1.3-1.7-2-3.3-2C152.9,26.5,151.7,28.4,151.7,32.4z"/>
	<path class="st1" d="M176.3,42c-2.8,0-5-0.8-6.8-2.5c-1.7-1.7-2.6-4-2.6-6.8v-0.5c0-1.9,0.4-3.6,1.1-5.1s1.8-2.6,3.1-3.5
		s2.9-1.2,4.6-1.2c2.6,0,4.6,0.8,6.1,2.4c1.5,1.6,2.2,3.9,2.2,6.9v2.1h-12c0.2,1.2,0.7,2.2,1.5,3c0.8,0.7,1.9,1.1,3.1,1.1
		c1.9,0,3.5-0.7,4.6-2.1l2.5,2.8c-0.8,1.1-1.8,1.9-3.1,2.5S177.9,42,176.3,42z M175.7,26.5c-1,0-1.8,0.3-2.4,1
		c-0.6,0.7-1,1.6-1.2,2.9h7V30c0-1.1-0.3-2-0.9-2.6C177.6,26.8,176.8,26.5,175.7,26.5z"/>
	<path class="st1" d="M186.2,32c0-1.9,0.4-3.5,1.1-5c0.7-1.5,1.8-2.6,3.1-3.4s2.9-1.2,4.7-1.2c2.5,0,4.6,0.8,6.2,2.3
		s2.5,3.7,2.7,6.4l0,1.3c0,2.9-0.8,5.2-2.4,7c-1.6,1.8-3.8,2.6-6.5,2.6c-2.7,0-4.9-0.9-6.5-2.6c-1.6-1.7-2.4-4.1-2.4-7.1V32z
		 M191.2,32.4c0,1.8,0.3,3.2,1,4.1c0.7,1,1.6,1.4,2.9,1.4c1.2,0,2.2-0.5,2.9-1.4c0.7-0.9,1-2.4,1-4.5c0-1.8-0.3-3.1-1-4.1
		c-0.7-1-1.7-1.5-2.9-1.5c-1.2,0-2.2,0.5-2.9,1.4C191.5,28.9,191.2,30.4,191.2,32.4z"/>
</g>
</svg>
