<?xml version="1.0" encoding="utf-8"?>
<!-- Generator: Adobe Illustrator 21.0.0, SVG Export Plug-In . SVG Version: 6.00 Build 0)  -->
<svg version="1.1" id="Capa_1" xmlns="http://www.w3.org/2000/svg" xmlns:xlink="http://www.w3.org/1999/xlink" x="0px" y="0px"
	 viewBox="0 0 497.4 161.8" style="enable-background:new 0 0 497.4 161.8;" xml:space="preserve">
<style type="text/css">
	.st0{fill:#FF0000;}
</style>
<g>
	<path class="st0" d="M410.9,0h14.9l-0.1,38.7c0,0-14.1-0.1-14.9,0L410.9,0z"/>
	<polygon class="st0" points="438.1,44.3 476,6.2 486.5,16.8 448.5,54.8 	"/>
	<path class="st0" d="M457.3,81.7V66.8l39.6,0c0,0-0.1,14.1,0,14.9H457.3z"/>
	<g>
		<path class="st0" d="M271.6,149.1c-0.1,1-0.2,2-0.3,2.9c-0.1,0.9-0.3,1.8-0.5,2.6c-0.2,0.8-0.6,1.6-1,2.4
			c-0.5,0.8-1.1,1.5-1.9,2.3c-1,0.9-2.1,1.5-3.3,1.9c-1.2,0.4-2.5,0.6-3.8,0.6h-9.4l2.7-25.4h9.4c1.3,0,2.6,0.2,3.7,0.6
			c1.1,0.4,2.1,1,2.9,1.9c0.7,0.7,1.1,1.5,1.4,2.3c0.3,0.8,0.5,1.6,0.5,2.4c0.1,0.8,0,1.7-0.1,2.6
			C271.8,147.1,271.7,148.1,271.6,149.1z M265.3,149.1c0.1-1.1,0.2-1.9,0.2-2.6s0.1-1.2,0-1.6c0-0.4-0.1-0.7-0.1-0.9
			c-0.1-0.2-0.1-0.4-0.2-0.6c-0.2-0.4-0.6-0.8-1-1c-0.4-0.3-1-0.4-1.8-0.4h-2.8l-1.5,14.3h2.8c0.8,0,1.4-0.1,1.9-0.4
			c0.5-0.3,0.9-0.6,1.2-1c0.1-0.2,0.3-0.4,0.4-0.6c0.1-0.2,0.2-0.5,0.3-0.9c0.1-0.4,0.2-0.9,0.3-1.6
			C265.1,151,265.2,150.2,265.3,149.1z"/>
		<path class="st0" d="M273.2,161.8l2.7-25.4h17.3l-0.6,5.6h-11l-0.4,4.2h9.4l-0.6,5.6h-9.4l-0.5,4.5h11l-0.6,5.6H273.2z"/>
		<path class="st0" d="M310.5,161.8h-4.6l-5.7-25.4h6.5l2.8,14.2l5.7-14.2h6.5L310.5,161.8z"/>
		<path class="st0" d="M320.1,161.8l2.7-25.4H340l-0.6,5.6h-11l-0.4,4.2h9.4l-0.6,5.6h-9.4l-0.5,4.5h11l-0.6,5.6H320.1z"/>
		<path class="st0" d="M353.3,161.8l-3.5-9.5h-2.1l-1,9.5h-6.2l2.7-25.4h10.1c1.4,0,2.6,0.2,3.7,0.7s1.9,1.1,2.5,1.8
			c0.6,0.8,1.1,1.6,1.4,2.6c0.3,1,0.4,2,0.3,3c-0.1,0.9-0.3,1.6-0.6,2.4c-0.3,0.7-0.7,1.3-1.2,1.9c-0.5,0.5-0.9,1-1.5,1.4
			c-0.5,0.4-1.1,0.7-1.6,1l4.4,10.6H353.3z M354.7,144.5c0.1-0.7-0.1-1.3-0.5-1.8c-0.4-0.5-1.1-0.8-1.9-0.8h-3.5l-0.5,5.1h3.5
			c0.9,0,1.6-0.3,2.1-0.8C354.4,145.8,354.7,145.2,354.7,144.5z"/>
		<path class="st0" d="M382.6,149.1c-0.1,1-0.2,2-0.3,2.9c-0.1,0.9-0.3,1.8-0.5,2.6c-0.2,0.8-0.6,1.6-1,2.4
			c-0.5,0.8-1.1,1.5-1.9,2.3c-1,0.9-2.1,1.5-3.3,1.9c-1.2,0.4-2.5,0.6-3.8,0.6h-9.4l2.7-25.4h9.4c1.3,0,2.6,0.2,3.7,0.6
			c1.1,0.4,2.1,1,2.9,1.9c0.7,0.7,1.1,1.5,1.4,2.3c0.3,0.8,0.5,1.6,0.5,2.4c0.1,0.8,0,1.7-0.1,2.6
			C382.8,147.1,382.7,148.1,382.6,149.1z M376.3,149.1c0.1-1.1,0.2-1.9,0.2-2.6s0.1-1.2,0-1.6c0-0.4-0.1-0.7-0.1-0.9
			c-0.1-0.2-0.1-0.4-0.2-0.6c-0.2-0.4-0.6-0.8-1-1c-0.4-0.3-1-0.4-1.8-0.4h-2.8l-1.5,14.3h2.8c0.8,0,1.4-0.1,1.9-0.4
			c0.5-0.3,0.9-0.6,1.2-1c0.1-0.2,0.3-0.4,0.4-0.6c0.1-0.2,0.2-0.5,0.3-0.9c0.1-0.4,0.2-0.9,0.3-1.6
			C376.1,151,376.2,150.2,376.3,149.1z"/>
		<path class="st0" d="M398,161.8l-0.8-3.8h-7.8l-1.6,3.8h-6.5l11.9-25.4h4.8l6.6,25.4H398z M394.7,146l-3,6.8h4.4L394.7,146z"/>
		<path class="st0" d="M425.9,149.1c-0.1,1-0.2,2-0.3,2.9c-0.1,0.9-0.3,1.8-0.5,2.6c-0.2,0.8-0.6,1.6-1,2.4
			c-0.5,0.8-1.1,1.5-1.9,2.3c-1,0.9-2.1,1.5-3.3,1.9c-1.2,0.4-2.5,0.6-3.8,0.6h-9.4l2.7-25.4h9.4c1.3,0,2.6,0.2,3.7,0.6
			c1.1,0.4,2.1,1,2.9,1.9c0.7,0.7,1.1,1.5,1.4,2.3c0.3,0.8,0.5,1.6,0.5,2.4c0.1,0.8,0,1.7-0.1,2.6
			C426.1,147.1,426,148.1,425.9,149.1z M419.7,149.1c0.1-1.1,0.2-1.9,0.2-2.6s0.1-1.2,0-1.6c0-0.4-0.1-0.7-0.1-0.9
			c-0.1-0.2-0.1-0.4-0.2-0.6c-0.2-0.4-0.6-0.8-1-1c-0.4-0.3-1-0.4-1.8-0.4H414l-1.5,14.3h2.8c0.8,0,1.4-0.1,1.9-0.4
			c0.5-0.3,0.9-0.6,1.2-1c0.1-0.2,0.3-0.4,0.4-0.6c0.1-0.2,0.2-0.5,0.3-0.9c0.1-0.4,0.2-0.9,0.3-1.6
			C419.5,151,419.6,150.2,419.7,149.1z"/>
	</g>
	<g>
		<path class="st0" d="M0,126.9V59.2h16.6v67.7H0z"/>
		<path class="st0" d="M26.6,126.9V59.2h16.6v52.8h28.4v14.8H26.6z"/>
		<path class="st0" d="M77.7,126.9V59.2h16.6v67.7H77.7z"/>
		<path class="st0" d="M150.8,126.9V94.5l-9.6,16.7h-10.6l-9.6-16.7v32.4h-16.6V59.2h16.3l15.2,29.8L151,59.2h16.3v67.7H150.8z"/>
		<path class="st0" d="M177.3,126.9V59.2h16.6v67.7H177.3z"/>
		<path class="st0" d="M233.2,74.1v52.8h-16.6V74.1h-16.6V59.2h49.9v14.8H233.2z"/>
		<path class="st0" d="M289.8,126.9l-3.1-10.1h-20.8l-3.3,10.1h-17.4l24.6-67.7h12.8l24.6,67.7H289.8z M276.6,84.9l-6.1,18.1h11.8
			L276.6,84.9z"/>
		<path class="st0" d="M360.7,93.1c0,2.7,0,5.2,0,7.7c0,2.4-0.2,4.7-0.6,6.9c-0.4,2.2-1.1,4.4-2,6.5c-1,2.1-2.5,4.1-4.4,6.1
			c-2.3,2.3-5.1,4-8.2,5.1s-6.5,1.6-10,1.6h-25.1V59.2h25.1c3.5,0,6.9,0.5,10,1.6s5.9,2.7,8.2,5.1c2,2,3.4,4,4.4,6.1
			c1,2.1,1.7,4.2,2,6.5c0.4,2.2,0.6,4.6,0.6,7C360.7,87.9,360.7,90.4,360.7,93.1z M344.1,93.1c0-2.9,0-5.2-0.1-6.9
			c-0.1-1.8-0.2-3.2-0.3-4.2c-0.2-1-0.3-1.9-0.6-2.4c-0.2-0.6-0.5-1.1-0.8-1.6c-0.8-1.1-1.8-2.1-3-2.8c-1.2-0.7-2.9-1-5-1H327v38
			h7.3c2.1,0,3.8-0.3,5-1c1.2-0.7,2.2-1.6,3-2.8c0.3-0.4,0.6-1,0.8-1.5c0.2-0.6,0.4-1.4,0.6-2.5c0.2-1.1,0.3-2.5,0.3-4.3
			C344.1,98.2,344.1,95.9,344.1,93.1z"/>
		<path class="st0" d="M405.4,126.9l-3.1-10.1h-20.8l-3.3,10.1h-17.4l24.6-67.7h12.8l24.6,67.7H405.4z M392.2,84.9l-6.1,18.1h11.8
			L392.2,84.9z"/>
	</g>
</g>
</svg>
