<?xml version="1.0" encoding="utf-8"?>
<!-- Generator: Adobe Illustrator 19.2.1, SVG Export Plug-In . SVG Version: 6.00 Build 0)  -->
<svg version="1.1" id="Capa_1" xmlns="http://www.w3.org/2000/svg" xmlns:xlink="http://www.w3.org/1999/xlink" x="0px" y="0px"
	 viewBox="0 0 74.4 28.7" style="enable-background:new 0 0 74.4 28.7;" xml:space="preserve">
<style type="text/css">
	.st0{fill:#009640;}
	.st1{fill:#0063AF;}
	.st2{fill:#E73339;}
	.st3{fill:#5BC5F2;}
	.st4{fill:#76B82A;}
	.st5{fill:#972456;}
	.st6{fill:#FFFFFF;}
	.st7{fill:#EE7203;}
</style>
<g>
	<path class="st0" d="M74.3,25.7c0,1.5-1.2,2.8-2.8,2.8H2.8c-1.5,0-2.8-1.2-2.8-2.8V12.9c0-1.5,1.2-2.8,2.8-2.8h68.7
		c1.5,0,2.8,1.2,2.8,2.8V25.7z"/>
</g>
<rect x="0" y="-0.1" class="st1" width="30.4" height="1.9"/>
<rect x="30.4" y="-0.1" class="st2" width="43.8" height="1.9"/>
<rect x="0" y="1.8" class="st3" width="12.6" height="12.6"/>
<rect x="12.6" y="1.8" class="st4" width="12.6" height="12.6"/>
<rect x="25.2" y="1.8" class="st5" width="12.6" height="12.6"/>
<g>
	<path class="st6" d="M15.9,6c-0.4,0-0.9,0.1-1.2,0.3l-0.3-0.9c0.4-0.2,1-0.4,1.8-0.4c1.2,0,2,0.6,2,1.5c0,0.9-0.6,1.4-1.2,1.5v0
		c0.7,0.1,1.4,0.5,1.4,1.4c0,1.1-1,1.8-2.2,1.8c-0.7,0-1.4-0.2-1.8-0.4l0.3-0.9c0.3,0.2,0.9,0.4,1.4,0.4c0.6,0,1.1-0.3,1.1-0.9
		c0-0.6-0.5-0.8-1.2-0.8h-0.4V7.6h0.3c0.7,0,1-0.4,1-0.9C16.9,6.2,16.5,6,15.9,6"/>
	<path class="st6" d="M23.7,10.7c-0.8,0.4-1.4,0.5-2.2,0.5c-1.8,0-2.7-1.2-2.7-3.2c0-1.8,0.9-3,2.8-3c0.9,0,1.5,0.2,2,0.5l-0.5,0.9
		c-0.3-0.2-0.9-0.4-1.5-0.4c-1.1,0-1.6,0.8-1.6,2c0,1.4,0.5,2.2,1.6,2.2c0.4,0,0.7-0.1,1-0.2V8.9h-0.8l-0.1-0.9h2V10.7z"/>
</g>
<path class="st6" d="M29.2,8.7V6.5l-1.4,2.2H29.2z M30.3,9.7v1.5h-1.2V9.7h-2.4V8.9l2.4-3.9h1.2v3.6H31v1H30.3z"/>
<g>
	<path class="st6" d="M36.3,10.7c-0.8,0.4-1.4,0.5-2.2,0.5c-1.8,0-2.7-1.2-2.7-3.2c0-1.8,0.9-3,2.8-3c0.9,0,1.5,0.2,2,0.5l-0.5,0.9
		c-0.3-0.2-0.9-0.4-1.5-0.4c-1.1,0-1.6,0.8-1.6,2c0,1.4,0.5,2.2,1.6,2.2c0.4,0,0.7-0.1,1-0.2V8.9h-0.8l-0.1-0.9h2V10.7z"/>
	<path class="st6" d="M2.1,6.3L1.7,5.4C2.2,5.2,2.8,5,3.5,5c1.2,0,2.2,0.6,2.2,1.7c0,1-0.6,1.9-2.6,3.5c0.2,0,0.6-0.1,0.9-0.1h1.8v1
		h-4v-0.9c2.3-1.8,2.7-2.7,2.7-3.4C4.5,6.3,4,6,3.3,6C2.9,6,2.4,6.1,2.1,6.3"/>
	<path class="st6" d="M11.1,10.7c-0.8,0.4-1.4,0.5-2.2,0.5c-1.8,0-2.7-1.2-2.7-3.2c0-1.8,0.9-3,2.8-3c0.9,0,1.5,0.2,2,0.5l-0.5,0.9
		C10.2,6.2,9.6,6.1,9,6.1c-1.1,0-1.6,0.8-1.6,2c0,1.4,0.5,2.2,1.6,2.2c0.4,0,0.7-0.1,1-0.2V8.9H9.2L9.1,8.1h2V10.7z"/>
</g>
<rect x="50.3" y="1.8" class="st1" width="23.9" height="12.6"/>
<g>
	<path class="st6" d="M53.3,13.5c-0.7,0-1.1-0.5-1.1-1.4c0-0.8,0.4-1.4,1.1-1.4c0.4,0,0.7,0.1,0.9,0.2l-0.2,0.4
		c-0.1-0.1-0.4-0.2-0.7-0.2c-0.4,0-0.7,0.3-0.7,0.9c0,0.6,0.2,0.9,0.7,0.9c0.3,0,0.5-0.1,0.7-0.2l0.2,0.4
		C54,13.4,53.7,13.5,53.3,13.5"/>
	<path class="st6" d="M55.5,11.3c-0.5,0-0.6,0.4-0.6,0.9c0,0.5,0.1,1,0.6,1c0.5,0,0.6-0.4,0.6-1C56.1,11.7,56,11.3,55.5,11.3
		 M55.5,13.5c-0.9,0-1.1-0.7-1.1-1.4c0-0.7,0.2-1.3,1.1-1.3c0.9,0,1.1,0.6,1.1,1.3C56.7,12.9,56.4,13.5,55.5,13.5"/>
	<path class="st6" d="M59.3,13.5l-0.1-2.2h0c0,0.3-0.1,0.5-0.1,0.6l-0.4,1.6H58l-0.4-1.6c0-0.2-0.1-0.4-0.1-0.6h0l0,2.2H57l0.1-2.7
		h0.9c0,0,0.3,1.3,0.4,2.2h0c0.2-0.9,0.5-2.2,0.5-2.2h0.9l0.1,2.7H59.3z"/>
	<path class="st6" d="M61.1,11.3h-0.3v0.9h0.3c0.3,0,0.5-0.2,0.5-0.5C61.5,11.4,61.4,11.3,61.1,11.3 M61.1,12.6h-0.3v0.9h-0.5v-2.7
		h0.8c0.5,0,1,0.3,1,0.8C62.1,12.2,61.7,12.6,61.1,12.6"/>
</g>
<path class="st6" d="M62.9,11.3l-0.3,1.2h0.7l-0.3-1.2H62.9z M62.4,13.5h-0.5l0.7-2.7h0.9l0.7,2.7h-0.6l-0.1-0.6h-0.9L62.4,13.5z"/>
<polygon class="st6" points="65.1,11.3 65.1,13.5 64.6,13.5 64.6,11.3 63.9,11.3 63.9,10.8 65.7,10.8 65.7,11.3 "/>
<rect x="66" y="10.8" class="st6" width="0.5" height="2.7"/>
<g>
	<path class="st6" d="M67.9,12.3h-0.4v0.7c0.1,0,0.2,0.1,0.3,0.1c0.3,0,0.5-0.1,0.5-0.4C68.4,12.5,68.2,12.3,67.9,12.3 M67.8,11.3
		h-0.3V12h0.3c0.3,0,0.4-0.1,0.4-0.4C68.2,11.4,68.1,11.3,67.8,11.3 M67.9,13.5c-0.4,0-0.6-0.1-0.9-0.1v-2.5h0.8
		c0.6,0,0.9,0.2,0.9,0.7c0,0.3-0.2,0.5-0.4,0.6v0c0.3,0.1,0.6,0.3,0.6,0.6C68.9,13.2,68.5,13.5,67.9,13.5"/>
</g>
<polygon class="st6" points="69.2,13.5 69.2,10.8 69.7,10.8 69.7,13.1 70.9,13.1 70.9,13.5 "/>
<polygon class="st6" points="71.1,13.5 71.1,10.8 72.7,10.8 72.7,11.3 71.6,11.3 71.6,11.9 72.5,11.9 72.4,12.4 71.6,12.4 
	71.6,13.1 72.7,13.1 72.7,13.5 "/>
<g>
	<path class="st6" d="M58.9,9.2c-0.3,0-0.5-0.1-0.8-0.1s-0.5,0-0.8,0.1c0.4-0.6,0.6-1.3,0.8-2C58.3,8,58.5,8.6,58.9,9.2 M58.7,5.8
		c0-0.3-0.3-0.6-0.6-0.6c-0.3,0-0.6,0.3-0.6,0.6c0,0.2,0.1,0.5,0.4,0.5c-0.1,1.3-0.7,2.6-1.5,3.6c0.6-0.3,1.2-0.4,1.8-0.4
		c0.6,0,1.2,0.1,1.8,0.4c-0.9-1-1.4-2.3-1.5-3.6C58.5,6.3,58.7,6.1,58.7,5.8"/>
	<path class="st6" d="M56.8,4.6L57.2,5c-0.4,0.4-0.4,1.1,0,1.5L56.8,7C56.2,6.3,56.2,5.3,56.8,4.6"/>
	<path class="st6" d="M56.4,7.4L56,7.8c-0.5-0.5-0.8-1.3-0.8-2c0-0.8,0.3-1.5,0.8-2l0.4,0.4c-0.4,0.4-0.7,1-0.7,1.6
		C55.7,6.4,56,7,56.4,7.4"/>
	<path class="st6" d="M59,6.6c0.2-0.2,0.3-0.5,0.3-0.8c0-0.3-0.1-0.6-0.3-0.8l0.4-0.4c0.3,0.3,0.5,0.7,0.5,1.2
		c0,0.4-0.2,0.9-0.5,1.2L59,6.6z"/>
	<path class="st6" d="M61.1,5.8c0,0.8-0.3,1.5-0.8,2l-0.4-0.4c0.4-0.4,0.7-1,0.7-1.6c0-0.6-0.2-1.2-0.7-1.6l0.4-0.4
		C60.8,4.3,61.1,5.1,61.1,5.8"/>
	<path class="st6" d="M66.3,6.8c1.6-1.6,3.1-3.2,4.6-4.8c0.6,0.7,1.2,1.2,1.7,1.7c-2.1,2.1-4.2,4.3-6.3,6.4
		c-1.2-1.2-2.3-2.4-3.4-3.5c0.5-0.5,1-1.1,1.6-1.7C65.1,5.5,65.7,6.1,66.3,6.8"/>
</g>
<rect x="37.7" y="1.8" class="st7" width="12.6" height="12.6"/>
<g>
	<path class="st6" d="M40.5,13.9c-0.6,0-1-0.2-1.3-0.4l0.3-0.6c0.2,0.2,0.7,0.4,1.1,0.4c0.4,0,0.6-0.2,0.6-0.5
		c0-0.9-1.9-0.4-1.9-1.9c0-0.6,0.5-1.1,1.5-1.1c0.5,0,0.9,0.1,1.2,0.3l-0.3,0.6c-0.2-0.1-0.6-0.2-1-0.2c-0.4,0-0.6,0.1-0.6,0.4
		c0,0.7,1.9,0.5,1.9,1.9C42,13.3,41.5,13.9,40.5,13.9"/>
</g>
<path class="st6" d="M43.9,10.4l-0.5,1.9h1.1l-0.4-1.9H43.9z M43.1,13.9h-0.8l1.1-4.1h1.3l1.1,4.1h-0.9l-0.2-0.9h-1.4L43.1,13.9z"/>
<polygon class="st6" points="46.3,13.9 46.3,9.7 48.8,9.7 48.8,10.4 47.1,10.4 47.1,11.4 48.4,11.4 48.4,12.1 47.1,12.1 47.1,13.2 
	48.8,13.2 48.8,13.9 "/>
<g>
	<path class="st6" d="M41.4,3C40.1,3,39,4.1,39,5.4c0,1.3,1.1,2.4,2.4,2.4c1.3,0,2.4-1.1,2.4-2.4C43.8,4.1,42.7,3,41.4,3"/>
	<path class="st6" d="M48.5,2.3l-0.7,0.3c0.3,0.9,0.5,1.9,0.5,2.9c0,1.1-0.2,2.1-0.5,3l0.7,0.3C48.8,7.8,49,6.7,49,5.5
		C49,4.4,48.9,3.3,48.5,2.3"/>
	<path class="st6" d="M46.2,3.3c0.2,0.7,0.4,1.4,0.4,2.2c0,0.8-0.1,1.6-0.4,2.3l0.7,0.3c0.3-0.8,0.5-1.7,0.5-2.6
		c0-0.9-0.1-1.7-0.4-2.5L46.2,3.3z"/>
	<path class="st6" d="M44.6,4c0.1,0.5,0.2,1,0.2,1.5c0,0.6-0.1,1.1-0.2,1.6l0.7,0.3c0.2-0.6,0.3-1.2,0.3-1.9c0-0.6-0.1-1.2-0.3-1.8
		L44.6,4z"/>
</g>
<path class="st6" d="M12.6,17.3l-0.4,1.6h1l-0.4-1.6H12.6z M11.9,20.3h-0.7l1-3.7h1.2l1,3.7h-0.8l-0.2-0.8h-1.3L11.9,20.3z"/>
<g>
	<path class="st6" d="M15.8,17.2h-0.4v1.2h0.4c0.4,0,0.7-0.3,0.7-0.7C16.5,17.4,16.2,17.2,15.8,17.2 M15.8,19h-0.4v1.3h-0.7v-3.7
		h1.1c0.7,0,1.4,0.4,1.4,1.1C17.2,18.5,16.7,19,15.8,19"/>
</g>
<polygon class="st6" points="18.8,17.2 18.8,20.3 18.1,20.3 18.1,17.2 17.2,17.2 17.2,16.6 19.7,16.6 19.7,17.2 "/>
<path class="st6" d="M21.2,17.2c-0.6,0-0.8,0.6-0.8,1.2c0,0.7,0.2,1.3,0.8,1.3c0.6,0,0.8-0.6,0.8-1.3C22,17.8,21.9,17.2,21.2,17.2
	 M21.2,20.4c-1.2,0-1.6-0.9-1.6-1.9c0-1,0.3-1.9,1.6-1.9c1.2,0,1.6,0.9,1.6,1.9C22.8,19.4,22.4,20.4,21.2,20.4"/>
<path class="st6" d="M25.6,17.2h-0.4v1.2h0.4c0.4,0,0.7-0.3,0.7-0.7C26.3,17.4,26,17.2,25.6,17.2 M25.7,19h-0.4v1.3h-0.7v-3.7h1.1
	c0.7,0,1.4,0.4,1.4,1.1C27,18.5,26.5,19,25.7,19"/>
<path class="st6" d="M28.3,17.3l-0.4,1.6h1l-0.4-1.6H28.3z M27.6,20.3h-0.7l1-3.7h1.2l1,3.7h-0.8L29,19.5h-1.3L27.6,20.3z"/>
<g>
	<path class="st6" d="M31.5,17.2h-0.4v1.2h0.4c0.5,0,0.7-0.2,0.7-0.6C32.2,17.3,31.9,17.2,31.5,17.2 M31.2,20.3h-0.7v-3.7h1.2
		c0.7,0,1.3,0.3,1.3,1.1c0,0.5-0.3,0.9-0.7,1.1c0.3,0.5,0.5,1,0.8,1.5h-0.8l-0.6-1.4c-0.2,0-0.3,0-0.4,0V20.3z"/>
</g>
<path class="st6" d="M34.5,17.3l-0.4,1.6h1l-0.4-1.6H34.5z M33.8,20.3h-0.7l1-3.7h1.2l1,3.7h-0.8l-0.2-0.8H34L33.8,20.3z"/>
<polygon class="st6" points="39.2,17.2 39.2,20.3 38.5,20.3 38.5,17.2 37.6,17.2 37.6,16.6 40.1,16.6 40.1,17.2 "/>
<g>
	<path class="st6" d="M41.6,17.2c-0.6,0-0.8,0.6-0.8,1.2c0,0.7,0.2,1.3,0.8,1.3c0.6,0,0.8-0.6,0.8-1.3
		C42.4,17.8,42.3,17.2,41.6,17.2 M41.6,20.4c-1.2,0-1.6-0.9-1.6-1.9c0-1,0.3-1.9,1.6-1.9c1.2,0,1.6,0.9,1.6,1.9
		C43.2,19.4,42.8,20.4,41.6,20.4"/>
	<path class="st6" d="M45,17.2h-0.5v2.5c0.1,0,0.4,0.1,0.6,0.1c0.5,0,0.9-0.3,0.9-1.3C46,17.5,45.7,17.2,45,17.2 M45.1,20.4
		c-0.5,0-1-0.1-1.3-0.2v-3.5H45c1.1,0,1.7,0.4,1.7,1.8C46.7,19.6,46.2,20.4,45.1,20.4"/>
</g>
<path class="st6" d="M48.3,17.3l-0.4,1.6h1l-0.4-1.6H48.3z M47.6,20.3h-0.7l1-3.7h1.2l1,3.7h-0.8l-0.2-0.8h-1.3L47.6,20.3z"/>
<g>
	<path class="st6" d="M51.5,20.4c-0.5,0-0.9-0.2-1.2-0.4l0.3-0.6c0.2,0.2,0.6,0.4,0.9,0.4s0.6-0.2,0.6-0.5c0-0.8-1.7-0.4-1.7-1.7
		c0-0.6,0.4-1,1.3-1c0.4,0,0.8,0.1,1.1,0.2l-0.2,0.6c-0.2-0.1-0.5-0.2-0.9-0.2c-0.3,0-0.5,0.1-0.5,0.4c0,0.7,1.7,0.4,1.7,1.6
		C52.8,19.8,52.3,20.4,51.5,20.4"/>
</g>
<polygon class="st6" points="54.6,20.3 54.6,16.6 55.3,16.6 55.3,19.7 56.8,19.7 56.8,20.3 "/>
<path class="st6" d="M58.4,17.3L58,18.9h1l-0.4-1.6H58.4z M57.6,20.3h-0.7l1-3.7h1.2l1,3.7h-0.8l-0.2-0.8h-1.3L57.6,20.3z"/>
<g>
	<path class="st6" d="M61.5,20.4c-0.5,0-0.9-0.2-1.2-0.4l0.3-0.6c0.2,0.2,0.6,0.4,0.9,0.4s0.6-0.2,0.6-0.5c0-0.8-1.7-0.4-1.7-1.7
		c0-0.6,0.4-1,1.3-1c0.4,0,0.8,0.1,1.1,0.2l-0.2,0.6c-0.2-0.1-0.5-0.2-0.9-0.2c-0.3,0-0.5,0.1-0.5,0.4c0,0.7,1.7,0.4,1.7,1.6
		C62.8,19.8,62.3,20.4,61.5,20.4"/>
	<path class="st6" d="M5.2,24.8H4.7v1c0.1,0,0.3,0.1,0.5,0.1c0.4,0,0.6-0.2,0.6-0.6C5.8,24.9,5.6,24.8,5.2,24.8 M5.1,23.3H4.7v1h0.4
		c0.4,0,0.6-0.1,0.6-0.5C5.6,23.4,5.4,23.3,5.1,23.3 M5.2,26.4c-0.6,0-0.9-0.1-1.2-0.2v-3.5h1.1c0.8,0,1.3,0.3,1.3,0.9
		c0,0.5-0.3,0.7-0.6,0.8v0c0.4,0.1,0.8,0.4,0.8,0.8C6.6,26,6,26.4,5.2,26.4"/>
</g>
<path class="st6" d="M8.2,23.3L7.8,25h1l-0.4-1.6H8.2z M7.5,26.3H6.8l1-3.7h1.2l1,3.7H9.1l-0.2-0.8H7.7L7.5,26.3z"/>
<polygon class="st6" points="12.1,26.3 11,23.5 10.9,23.5 11,26.3 10.3,26.3 10.3,22.7 11.4,22.7 12.6,25.6 12.6,25.6 12.6,22.7 
	13.2,22.7 13.2,26.3 "/>
<g>
	<path class="st6" d="M15.1,23.3h-0.5v2.5c0.1,0,0.4,0.1,0.6,0.1c0.5,0,0.9-0.3,0.9-1.3C16.1,23.6,15.8,23.3,15.1,23.3 M15.2,26.4
		c-0.5,0-1-0.1-1.3-0.2v-3.5h1.2c1.1,0,1.7,0.4,1.7,1.8C16.9,25.7,16.4,26.4,15.2,26.4"/>
</g>
<path class="st6" d="M18.5,23.3L18.1,25h1l-0.4-1.6H18.5z M17.8,26.3h-0.7l1-3.7h1.2l1,3.7h-0.8l-0.2-0.8H18L17.8,26.3z"/>
<g>
	<path class="st6" d="M21.6,26.4c-0.5,0-0.9-0.2-1.2-0.4l0.3-0.6c0.2,0.2,0.6,0.4,0.9,0.4c0.3,0,0.6-0.2,0.6-0.5
		c0-0.8-1.7-0.4-1.7-1.7c0-0.6,0.4-1,1.3-1c0.4,0,0.8,0.1,1.1,0.2l-0.2,0.6c-0.2-0.1-0.5-0.2-0.9-0.2c-0.3,0-0.5,0.1-0.5,0.4
		c0,0.7,1.7,0.4,1.7,1.6C22.9,25.9,22.4,26.4,21.6,26.4"/>
	<path class="st6" d="M25.9,23.3h-0.5v2.5c0.1,0,0.4,0.1,0.6,0.1c0.5,0,0.9-0.3,0.9-1.3C26.9,23.6,26.6,23.3,25.9,23.3 M26,26.4
		c-0.5,0-1-0.1-1.3-0.2v-3.5h1.2c1.1,0,1.7,0.4,1.7,1.8C27.6,25.7,27.1,26.4,26,26.4"/>
</g>
<polygon class="st6" points="28.3,26.3 28.3,22.7 30.5,22.7 30.5,23.3 29,23.3 29,24.2 30.1,24.2 30.1,24.8 29,24.8 29,25.8 
	30.5,25.8 30.5,26.3 "/>
<polygon class="st6" points="32.3,26.3 32.3,22.7 33,22.7 33,25.8 34.5,25.8 34.5,26.3 "/>
<path class="st6" d="M36.1,23.3L35.7,25h1l-0.4-1.6H36.1z M35.4,26.3h-0.7l1-3.7h1.2l1,3.7H37l-0.2-0.8h-1.3L35.4,26.3z"/>
<g>
	<path class="st6" d="M39.2,26.4c-0.5,0-0.9-0.2-1.2-0.4l0.3-0.6c0.2,0.2,0.6,0.4,0.9,0.4s0.6-0.2,0.6-0.5c0-0.8-1.7-0.4-1.7-1.7
		c0-0.6,0.4-1,1.3-1c0.4,0,0.8,0.1,1.1,0.2l-0.2,0.6c-0.2-0.1-0.5-0.2-0.9-0.2c-0.3,0-0.5,0.1-0.5,0.4c0,0.7,1.7,0.4,1.7,1.6
		C40.5,25.9,40,26.4,39.2,26.4"/>
	<path class="st6" d="M43.8,26.4c-1,0-1.6-0.7-1.6-1.9c0-1.1,0.5-1.9,1.6-1.9c0.5,0,0.9,0.1,1.2,0.3l-0.3,0.6
		c-0.2-0.1-0.5-0.3-0.9-0.3c-0.6,0-0.9,0.4-0.9,1.2c0,0.8,0.3,1.3,0.9,1.3c0.4,0,0.7-0.2,1-0.3L45,26C44.6,26.3,44.2,26.4,43.8,26.4
		"/>
	<path class="st6" d="M46.9,23.3c-0.6,0-0.8,0.6-0.8,1.2c0,0.7,0.2,1.3,0.8,1.3c0.6,0,0.8-0.6,0.8-1.3
		C47.7,23.8,47.5,23.3,46.9,23.3 M46.9,26.4c-1.2,0-1.6-0.9-1.6-1.9c0-1,0.3-1.9,1.6-1.9c1.2,0,1.6,0.9,1.6,1.9
		C48.4,25.5,48.1,26.4,46.9,26.4"/>
	<path class="st6" d="M52.2,26.3l-0.1-3.1h0c-0.1,0.4-0.1,0.7-0.2,0.9l-0.5,2.2h-1l-0.5-2.2c0-0.2-0.1-0.5-0.2-0.9h0l0,3.1h-0.6
		l0.1-3.7h1.2c0,0,0.4,1.8,0.6,3h0c0.2-1.2,0.7-3,0.7-3h1.2l0.1,3.7H52.2z"/>
	<path class="st6" d="M54.7,23.3h-0.4v1.2h0.4c0.4,0,0.7-0.3,0.7-0.7C55.4,23.5,55.1,23.3,54.7,23.3 M54.7,25.1h-0.4v1.3h-0.7v-3.7
		h1.1c0.7,0,1.4,0.4,1.4,1.1C56.1,24.5,55.6,25.1,54.7,25.1"/>
</g>
<path class="st6" d="M57.4,23.3L57,25h1l-0.4-1.6H57.4z M56.7,26.3H56l1-3.7h1.2l1,3.7h-0.8l-0.2-0.8h-1.3L56.7,26.3z"/>
<path class="st6" d="M61.3,22.4l-0.5-0.2c-0.2-0.1-0.3,0-0.4,0.2L60,22.2c0-0.4,0.3-0.6,0.8-0.5l0.5,0.2c0.2,0.1,0.3,0,0.4-0.2
	l0.3,0.1C61.9,22.3,61.7,22.5,61.3,22.4 M61.3,26.3l-1.1-2.9h0l0,2.9h-0.6v-3.7h1.1l1.2,2.9h0l0-2.9h0.7v3.7H61.3z"/>
<path class="st6" d="M63.2,22.7h0.7v3.7h-0.7V22.7z M62.9,22.5c0-0.1,0-0.4-0.1-0.4l1.5-0.2l0,0.5L62.9,22.5z"/>
<path class="st6" d="M65.9,23.3L65.5,25h1l-0.4-1.6H65.9z M65.1,26.3h-0.7l1-3.7h1.2l1,3.7h-0.8l-0.2-0.8h-1.3L65.1,26.3z"/>
<g>
	<path class="st6" d="M69,26.4c-0.5,0-0.9-0.2-1.2-0.4l0.3-0.6c0.2,0.2,0.6,0.4,0.9,0.4s0.6-0.2,0.6-0.5c0-0.8-1.7-0.4-1.7-1.7
		c0-0.6,0.4-1,1.3-1c0.4,0,0.8,0.1,1.1,0.2L70,23.5c-0.2-0.1-0.5-0.2-0.9-0.2c-0.3,0-0.5,0.1-0.5,0.4c0,0.7,1.7,0.4,1.7,1.6
		C70.3,25.9,69.8,26.4,69,26.4"/>
</g>
</svg>
