<?xml version="1.0" encoding="utf-8"?>
<!-- Generator: Adobe Illustrator 22.1.0, SVG Export Plug-In . SVG Version: 6.00 Build 0)  -->
<svg version="1.1" xmlns="http://www.w3.org/2000/svg" xmlns:xlink="http://www.w3.org/1999/xlink" x="0px" y="0px"
	 viewBox="0 0 400 400" style="enable-background:new 0 0 400 400;" xml:space="preserve">
<style type="text/css">
	.st0{fill:#1DA1F2;}
	.st1{fill:#FFFFFF;}
	.st2{fill:#EFEFEF;}
</style>
<g id="Dark_Blue">
	<rect class="st0" width="400" height="400"/>
</g>
<g id="Logo__x2014__FIXED">
	<path class="st1" d="M153.6,301.6c94.3,0,145.9-78.2,145.9-145.9c0-2.2,0-4.4-0.1-6.6c10-7.2,18.7-16.3,25.6-26.6
		c-9.2,4.1-19.1,6.8-29.5,8.1c10.6-6.3,18.7-16.4,22.6-28.4c-9.9,5.9-20.9,10.1-32.6,12.4c-9.4-10-22.7-16.2-37.4-16.2
		c-28.3,0-51.3,23-51.3,51.3c0,4,0.5,7.9,1.3,11.7c-42.6-2.1-80.4-22.6-105.7-53.6c-4.4,7.6-6.9,16.4-6.9,25.8
		c0,17.8,9.1,33.5,22.8,42.7c-8.4-0.3-16.3-2.6-23.2-6.4c0,0.2,0,0.4,0,0.7c0,24.8,17.7,45.6,41.1,50.3c-4.3,1.2-8.8,1.8-13.5,1.8
		c-3.3,0-6.5-0.3-9.6-0.9c6.5,20.4,25.5,35.2,47.9,35.6c-17.6,13.8-39.7,22-63.7,22c-4.1,0-8.2-0.2-12.2-0.7
		C97.7,293.1,124.7,301.6,153.6,301.6"/>
</g>
<g id="Annotations">
	<g>
		<path class="st0" d="M5.3-142.1c0,2.9,2.2,4,4.7,4c1.6,0,4.2-0.5,4.2-2.7c0-2.3-3.2-2.7-6.4-3.5c-3.2-0.8-6.4-2.1-6.4-6.1
			c0-4.4,4.1-6.5,8-6.5c4.5,0,8.6,2,8.6,6.9h-4.6c-0.1-2.5-1.9-3.2-4.2-3.2c-1.5,0-3.2,0.6-3.2,2.4c0,1.6,1,1.9,6.4,3.2
			c1.6,0.4,6.4,1.4,6.4,6.2c0,3.9-3.1,6.9-8.9,6.9c-4.7,0-9.2-2.3-9.1-7.6H5.3z"/>
		<path class="st0" d="M27.9-150.9c4.9,0,8,3.2,8,8.2c0,4.9-3.1,8.2-8,8.2c-4.9,0-8-3.2-8-8.2C19.9-147.6,23.1-150.9,27.9-150.9z
			 M27.9-137.7c2.9,0,3.8-2.5,3.8-4.9s-0.9-5-3.8-5c-2.9,0-3.7,2.5-3.7,5S25-137.7,27.9-137.7z"/>
		<path class="st0" d="M48.4-145c-0.3-1.8-1.3-2.7-3.1-2.7c-2.7,0-3.6,2.8-3.6,5c0,2.3,0.9,4.9,3.5,4.9c2,0,3.1-1.2,3.4-3.1h4.1
			c-0.6,4.1-3.4,6.4-7.5,6.4c-4.7,0-7.8-3.3-7.8-7.9c0-4.8,2.9-8.4,7.9-8.4c3.7,0,7,1.9,7.3,5.9H48.4z"/>
		<path class="st0" d="M58.7-152.9h-4.3v-3.5h4.3V-152.9z M54.5-150.5h4.3v15.5h-4.3V-150.5z"/>
		<path class="st0" d="M61.2-145.7c0.2-4,3.8-5.2,7.3-5.2c3.1,0,6.8,0.7,6.8,4.4v8.1c0,1.4,0.1,2.8,0.5,3.4h-4.3
			c-0.1-0.5-0.3-1-0.3-1.5c-1.4,1.4-3.3,1.9-5.2,1.9c-3,0-5.3-1.5-5.3-4.6c0.1-7,10.5-3.3,10.3-6.7c0-1.8-1.3-2.1-2.8-2.1
			c-1.6,0-2.7,0.7-2.8,2.3H61.2z M71-142.5c-0.7,0.6-2.2,0.7-3.5,0.9c-1.3,0.2-2.5,0.7-2.5,2.3c0,1.6,1.2,2,2.6,2
			c3.3,0,3.5-2.6,3.5-3.6V-142.5z"/>
		<path class="st0" d="M78-156.4h4.3v21.4H78V-156.4z"/>
		<path class="st0" d="M92.9-156.4h4.7v21.4h-4.7V-156.4z"/>
		<path class="st0" d="M111-145c-0.3-1.8-1.3-2.7-3.1-2.7c-2.7,0-3.6,2.8-3.6,5c0,2.3,0.9,4.9,3.5,4.9c2,0,3.1-1.2,3.4-3.1h4.1
			c-0.6,4.1-3.4,6.4-7.5,6.4c-4.7,0-7.8-3.3-7.8-7.9c0-4.8,2.9-8.4,7.9-8.4c3.7,0,7,1.9,7.3,5.9H111z"/>
		<path class="st0" d="M124.4-150.9c4.9,0,8,3.2,8,8.2c0,4.9-3.1,8.2-8,8.2c-4.9,0-8-3.2-8-8.2C116.4-147.6,119.6-150.9,124.4-150.9
			z M124.4-137.7c2.9,0,3.8-2.5,3.8-4.9s-0.9-5-3.8-5c-2.9,0-3.7,2.5-3.7,5S121.6-137.7,124.4-137.7z"/>
		<path class="st0" d="M134.5-150.5h4v2.2h0.1c1.1-1.8,2.9-2.6,4.7-2.6c4.5,0,5.7,2.5,5.7,6.4v9.5h-4.3v-8.8c0-2.5-0.7-3.8-2.7-3.8
			c-2.3,0-3.3,1.3-3.3,4.4v8.1h-4.3V-150.5z"/>
		<path class="st0" d="M156.3-145.6h-4.7v-4.6h4.7V-145.6z M151.6-139.6h4.7v4.6h-4.7V-139.6z"/>
		<path class="st0" d="M5.3-112.1c0,2.9,2.2,4,4.7,4c1.6,0,4.2-0.5,4.2-2.7c0-2.3-3.2-2.7-6.4-3.5c-3.2-0.8-6.4-2.1-6.4-6.1
			c0-4.4,4.1-6.5,8-6.5c4.5,0,8.6,2,8.6,6.9h-4.6c-0.1-2.5-1.9-3.2-4.2-3.2c-1.5,0-3.2,0.6-3.2,2.4c0,1.6,1,1.9,6.4,3.2
			c1.6,0.4,6.4,1.4,6.4,6.2c0,3.9-3.1,6.9-8.9,6.9c-4.7,0-9.2-2.3-9.1-7.6H5.3z"/>
		<path class="st0" d="M35.7-99.5h-4.3v-7.4h-0.1c-1,1.7-3,2.4-4.9,2.4c-2.9,0-6.6-2.1-6.6-8.1c0-4.3,2.3-8.3,7-8.3
			c1.9,0,3.8,0.7,4.7,2.4h0.1v-2h4V-99.5z M27.8-107.7c2.8,0,3.7-2.3,3.7-4.9c0-2.4-1-5-3.6-5c-2.8,0-3.8,2.5-3.8,5
			C24.2-110.2,25.1-107.7,27.8-107.7z"/>
		<path class="st0" d="M52.8-104.9h-4v-2.2h-0.1c-1.1,1.8-2.9,2.6-4.7,2.6c-4.5,0-5.7-2.5-5.7-6.4v-9.5h4.3v8.8
			c0,2.5,0.7,3.8,2.7,3.8c2.3,0,3.3-1.3,3.3-4.4v-8.1h4.3V-104.9z"/>
		<path class="st0" d="M55.2-115.7c0.2-4,3.8-5.2,7.3-5.2c3.1,0,6.8,0.7,6.8,4.4v8.1c0,1.4,0.1,2.8,0.5,3.4h-4.3
			c-0.1-0.5-0.3-1-0.3-1.5c-1.4,1.4-3.3,1.9-5.2,1.9c-3,0-5.3-1.5-5.3-4.6c0.1-7,10.5-3.3,10.3-6.7c0-1.8-1.3-2.1-2.8-2.1
			c-1.6,0-2.7,0.7-2.8,2.3H55.2z M65.1-112.5c-0.7,0.6-2.2,0.7-3.5,0.9c-1.3,0.2-2.5,0.7-2.5,2.3c0,1.6,1.2,2,2.6,2
			c3.3,0,3.5-2.6,3.5-3.6V-112.5z"/>
		<path class="st0" d="M72-120.5h4v2.9h0.1c0.8-2,2.8-3.3,4.9-3.3c0.3,0,0.6,0.1,0.9,0.1v4c-0.4-0.1-1-0.2-1.5-0.2
			c-3.1,0-4.2,2.2-4.2,5v7H72V-120.5z"/>
		<path class="st0" d="M86.6-111.7c0.1,2.7,1.4,3.9,3.8,3.9c1.7,0,3.1-1,3.4-2h3.8c-1.2,3.7-3.8,5.2-7.3,5.2c-4.9,0-7.9-3.4-7.9-8.2
			c0-4.6,3.2-8.2,7.9-8.2c5.3,0,7.9,4.4,7.5,9.2H86.6z M93.5-114.4c-0.4-2.2-1.3-3.3-3.4-3.3c-2.8,0-3.4,2.1-3.5,3.3H93.5z"/>
	</g>
	<g>
		<g>
			<path class="st0" d="M0.8-82.2h1.3l2.2,6l2.3-6h1.3v7.1H7V-81h0L4.8-75H3.9L1.7-81h0v5.9H0.8V-82.2z"/>
			<path class="st0" d="M14.1-75.1c-0.1,0.1-0.4,0.1-0.6,0.1c-0.4,0-0.7-0.2-0.7-0.8c-0.5,0.6-1.1,0.8-1.8,0.8
				c-0.9,0-1.7-0.4-1.7-1.4c0-1.2,0.9-1.4,1.7-1.6c0.9-0.2,1.7-0.1,1.7-0.8c0-0.8-0.6-0.9-1.1-0.9c-0.7,0-1.2,0.2-1.3,1H9.5
				c0.1-1.3,1-1.7,2.2-1.7c0.9,0,1.9,0.2,1.9,1.4v2.7c0,0.4,0,0.6,0.3,0.6c0.1,0,0.2,0,0.3,0V-75.1z M12.7-77.7
				c-0.7,0.5-2.6,0-2.6,1.3c0,0.6,0.5,0.8,1,0.8c1.1,0,1.6-0.7,1.6-1.2V-77.7z"/>
			<path class="st0" d="M15.2-82.2H16v4.2l2.4-2.3h1.1l-2,1.9l2.2,3.3h-1.1l-1.8-2.7L16-77v2h-0.8V-82.2z"/>
			<path class="st0" d="M24.7-76.7c-0.2,1.1-1,1.8-2.2,1.8c-1.6,0-2.4-1.1-2.5-2.7c0-1.6,1-2.7,2.4-2.7c1.8,0,2.4,1.7,2.3,3h-3.9
				c0,0.9,0.5,1.7,1.6,1.7c0.7,0,1.2-0.3,1.3-1H24.7z M23.9-78.1c0-0.8-0.6-1.5-1.5-1.5c-0.9,0-1.4,0.7-1.5,1.5H23.9z"/>
			<path class="st0" d="M29.3-76.7c0,0.8,0.7,1,1.4,1c0.5,0,1.2-0.1,1.2-0.8c0-1.3-3.4-0.4-3.4-2.4c0-1,1-1.5,1.9-1.5
				c1.2,0,2,0.4,2.1,1.6h-0.8c-0.1-0.7-0.6-0.9-1.2-0.9c-0.5,0-1.1,0.1-1.1,0.7c0,0.6,0.9,0.7,1.7,0.9c0.8,0.2,1.7,0.5,1.7,1.5
				c0,1.2-1.1,1.6-2.2,1.6c-1.2,0-2.1-0.5-2.2-1.7H29.3z"/>
			<path class="st0" d="M38.2-75h-0.8v-0.8h0c-0.4,0.6-0.9,0.9-1.7,0.9c-1.4,0-1.8-0.8-1.8-1.9v-3.4h0.8v3.5c0,0.6,0.4,1,1,1
				c1,0,1.5-0.7,1.5-1.6v-2.9h0.8V-75z"/>
			<path class="st0" d="M39.7-80.2h0.8v1.1h0c0.4-0.8,1-1.2,1.9-1.2v0.9c-1.4,0-1.9,0.8-1.9,2.1v2.3h-0.8V-80.2z"/>
			<path class="st0" d="M47.6-76.7c-0.2,1.1-1,1.8-2.2,1.8c-1.6,0-2.4-1.1-2.5-2.7c0-1.6,1-2.7,2.4-2.7c1.8,0,2.4,1.7,2.3,3h-3.9
				c0,0.9,0.5,1.7,1.6,1.7c0.7,0,1.2-0.3,1.3-1H47.6z M46.8-78.1c0-0.8-0.6-1.5-1.5-1.5c-0.9,0-1.4,0.7-1.5,1.5H46.8z"/>
			<path class="st0" d="M53.7-74.3c-0.4,1-0.7,1.4-1.5,1.4c-0.2,0-0.4,0-0.6-0.1v-0.8c0.2,0.1,0.3,0.1,0.5,0.1
				c0.3,0,0.5-0.2,0.7-0.5l0.4-0.9l-2-5.1h1l1.5,4.2h0l1.4-4.2h0.9L53.7-74.3z"/>
			<path class="st0" d="M58.9-80.3c1.6,0,2.5,1.2,2.5,2.7c0,1.5-0.9,2.7-2.5,2.7c-1.6,0-2.5-1.2-2.5-2.7
				C56.4-79.1,57.3-80.3,58.9-80.3z M58.9-75.7c0.9,0,1.6-0.7,1.6-1.9s-0.7-2-1.6-2c-0.9,0-1.6,0.7-1.6,2S58-75.7,58.9-75.7z"/>
			<path class="st0" d="M66.9-75h-0.8v-0.8h0c-0.4,0.6-0.9,0.9-1.7,0.9c-1.4,0-1.8-0.8-1.8-1.9v-3.4h0.8v3.5c0,0.6,0.4,1,1,1
				c1,0,1.5-0.7,1.5-1.6v-2.9h0.8V-75z"/>
			<path class="st0" d="M68.6-82.2h0.7v2.6h-0.7V-82.2z"/>
			<path class="st0" d="M70.9-80.2h0.8v1.1h0c0.4-0.8,1-1.2,1.9-1.2v0.9c-1.4,0-1.9,0.8-1.9,2.1v2.3h-0.8V-80.2z"/>
			<path class="st0" d="M78.8-76.7c-0.2,1.1-1,1.8-2.2,1.8c-1.6,0-2.4-1.1-2.5-2.7c0-1.6,1-2.7,2.4-2.7c1.8,0,2.4,1.7,2.3,3H75
				c0,0.9,0.5,1.7,1.6,1.7c0.7,0,1.2-0.3,1.3-1H78.8z M78-78.1c0-0.8-0.6-1.5-1.5-1.5c-0.9,0-1.4,0.7-1.5,1.5H78z"/>
			<path class="st0" d="M87.1-75h-0.8v-0.8h0c-0.4,0.6-0.9,0.9-1.7,0.9c-1.4,0-1.8-0.8-1.8-1.9v-3.4h0.8v3.5c0,0.6,0.4,1,1,1
				c1,0,1.5-0.7,1.5-1.6v-2.9h0.8V-75z"/>
			<path class="st0" d="M89.1-76.7c0,0.8,0.7,1,1.4,1c0.5,0,1.2-0.1,1.2-0.8c0-1.3-3.4-0.4-3.4-2.4c0-1,1-1.5,1.9-1.5
				c1.2,0,2,0.4,2.1,1.6h-0.8c-0.1-0.7-0.6-0.9-1.2-0.9c-0.5,0-1.1,0.1-1.1,0.7c0,0.6,0.9,0.7,1.7,0.9c0.8,0.2,1.7,0.5,1.7,1.5
				c0,1.2-1.1,1.6-2.2,1.6c-1.2,0-2.1-0.5-2.2-1.7H89.1z"/>
			<path class="st0" d="M94.7-81.1h-0.8v-1h0.8V-81.1z M93.9-80.2h0.8v5.2h-0.8V-80.2z"/>
			<path class="st0" d="M96.2-80.2H97v0.8h0c0.4-0.6,0.9-0.9,1.7-0.9c1.4,0,1.8,0.8,1.8,1.9v3.4h-0.8v-3.5c0-0.6-0.4-1-1-1
				c-1,0-1.5,0.7-1.5,1.6v2.9h-0.8V-80.2z"/>
			<path class="st0" d="M106.4-75.5c0,1.7-0.8,2.5-2.4,2.5c-1,0-2.1-0.4-2.1-1.5h0.8c0,0.6,0.8,0.8,1.3,0.8c1.1,0,1.5-0.8,1.5-2
				v-0.3h0c-0.3,0.6-0.9,0.9-1.6,0.9c-1.5,0-2.3-1.2-2.3-2.6c0-1.2,0.6-2.7,2.4-2.7c0.6,0,1.2,0.3,1.5,0.9h0v-0.7h0.8V-75.5z
				 M105.6-77.7c0-0.9-0.4-1.8-1.5-1.8c-1.1,0-1.5,0.9-1.5,1.9c0,0.9,0.3,2,1.5,2C105.2-75.7,105.6-76.8,105.6-77.7z"/>
			<path class="st0" d="M112-80.2h1v0.7h-1v3.2c0,0.4,0.1,0.5,0.6,0.5h0.4v0.7h-0.6c-0.9,0-1.2-0.2-1.2-1.1v-3.3h-0.9v-0.7h0.9v-1.5
				h0.8V-80.2z"/>
			<path class="st0" d="M114.1-82.2h0.8v2.7h0c0.3-0.6,1-0.9,1.6-0.9c1.4,0,1.8,0.8,1.8,1.9v3.4h-0.8v-3.5c0-0.6-0.4-1-1-1
				c-1,0-1.5,0.7-1.5,1.6v2.9h-0.8V-82.2z"/>
			<path class="st0" d="M124.2-76.7c-0.2,1.1-1,1.8-2.2,1.8c-1.6,0-2.4-1.1-2.5-2.7c0-1.6,1-2.7,2.4-2.7c1.8,0,2.4,1.7,2.3,3h-3.9
				c0,0.9,0.5,1.7,1.6,1.7c0.7,0,1.2-0.3,1.3-1H124.2z M123.4-78.1c0-0.8-0.6-1.5-1.5-1.5c-0.9,0-1.4,0.7-1.5,1.5H123.4z"/>
			<path class="st0" d="M128.6-79.5h-0.9v-0.7h0.9V-81c0-0.8,0.5-1.3,1.4-1.3c0.2,0,0.4,0,0.5,0.1v0.7c-0.1,0-0.3-0.1-0.5-0.1
				c-0.4,0-0.6,0.1-0.6,0.6v0.7h1v0.7h-1v4.4h-0.8V-79.5z"/>
			<path class="st0" d="M133.6-80.3c1.6,0,2.5,1.2,2.5,2.7c0,1.5-0.9,2.7-2.5,2.7c-1.6,0-2.5-1.2-2.5-2.7
				C131.1-79.1,132-80.3,133.6-80.3z M133.6-75.7c0.9,0,1.6-0.7,1.6-1.9s-0.7-2-1.6-2c-0.9,0-1.6,0.7-1.6,2S132.7-75.7,133.6-75.7z"
				/>
			<path class="st0" d="M137.3-82.2h0.8v7.1h-0.8V-82.2z"/>
			<path class="st0" d="M139.7-82.2h0.8v7.1h-0.8V-82.2z"/>
			<path class="st0" d="M144.3-80.3c1.6,0,2.5,1.2,2.5,2.7c0,1.5-0.9,2.7-2.5,2.7c-1.6,0-2.5-1.2-2.5-2.7
				C141.8-79.1,142.7-80.3,144.3-80.3z M144.3-75.7c0.9,0,1.6-0.7,1.6-1.9s-0.7-2-1.6-2c-0.9,0-1.6,0.7-1.6,2S143.4-75.7,144.3-75.7
				z"/>
			<path class="st0" d="M153-75h-0.9l-1-4.1h0l-1,4.1H149l-1.7-5.2h0.9l1.2,4.2h0l1-4.2h0.9l1.1,4.2h0l1.2-4.2h0.9L153-75z"/>
			<path class="st0" d="M156.5-81.1h-0.8v-1h0.8V-81.1z M155.6-80.2h0.8v5.2h-0.8V-80.2z"/>
			<path class="st0" d="M158-80.2h0.8v0.8h0c0.4-0.6,0.9-0.9,1.7-0.9c1.4,0,1.8,0.8,1.8,1.9v3.4h-0.8v-3.5c0-0.6-0.4-1-1-1
				c-1,0-1.5,0.7-1.5,1.6v2.9H158V-80.2z"/>
			<path class="st0" d="M168.2-75.5c0,1.7-0.8,2.5-2.4,2.5c-1,0-2.1-0.4-2.1-1.5h0.8c0,0.6,0.8,0.8,1.3,0.8c1.1,0,1.5-0.8,1.5-2
				v-0.3h0c-0.3,0.6-0.9,0.9-1.6,0.9c-1.5,0-2.3-1.2-2.3-2.6c0-1.2,0.6-2.7,2.4-2.7c0.6,0,1.2,0.3,1.5,0.9h0v-0.7h0.8V-75.5z
				 M167.4-77.7c0-0.9-0.4-1.8-1.5-1.8c-1.1,0-1.5,0.9-1.5,1.9c0,0.9,0.3,2,1.5,2C166.9-75.7,167.4-76.8,167.4-77.7z"/>
			<path class="st0" d="M176.1-78.5c-0.1-0.6-0.6-1-1.3-1c-1.2,0-1.6,1-1.6,2c0,1,0.4,1.9,1.5,1.9c0.8,0,1.3-0.5,1.4-1.3h0.9
				c-0.2,1.3-1,2-2.3,2c-1.6,0-2.4-1.1-2.4-2.6s0.8-2.8,2.4-2.8c1.2,0,2.1,0.5,2.2,1.8H176.1z"/>
			<path class="st0" d="M180.4-80.3c1.6,0,2.5,1.2,2.5,2.7c0,1.5-0.9,2.7-2.5,2.7c-1.6,0-2.5-1.2-2.5-2.7
				C177.9-79.1,178.8-80.3,180.4-80.3z M180.4-75.7c0.9,0,1.6-0.7,1.6-1.9s-0.7-2-1.6-2c-0.9,0-1.6,0.7-1.6,2S179.5-75.7,180.4-75.7
				z"/>
			<path class="st0" d="M184.1-82.2h0.8v7.1h-0.8V-82.2z"/>
			<path class="st0" d="M188.7-80.3c1.6,0,2.5,1.2,2.5,2.7c0,1.5-0.9,2.7-2.5,2.7c-1.6,0-2.5-1.2-2.5-2.7
				C186.2-79.1,187.1-80.3,188.7-80.3z M188.7-75.7c0.9,0,1.6-0.7,1.6-1.9s-0.7-2-1.6-2c-0.9,0-1.6,0.7-1.6,2S187.8-75.7,188.7-75.7
				z"/>
			<path class="st0" d="M192.4-80.2h0.8v1.1h0c0.4-0.8,1-1.2,1.9-1.2v0.9c-1.4,0-1.9,0.8-1.9,2.1v2.3h-0.8V-80.2z"/>
			<path class="st0" d="M196.7-76.7c0,0.8,0.7,1,1.4,1c0.5,0,1.2-0.1,1.2-0.8c0-1.3-3.4-0.4-3.4-2.4c0-1,1-1.5,1.9-1.5
				c1.2,0,2,0.4,2.1,1.6h-0.8c-0.1-0.7-0.6-0.9-1.2-0.9c-0.5,0-1.1,0.1-1.1,0.7c0,0.6,0.9,0.7,1.7,0.9c0.8,0.2,1.7,0.5,1.7,1.5
				c0,1.2-1.1,1.6-2.2,1.6c-1.2,0-2.1-0.5-2.2-1.7H196.7z"/>
			<path class="st0" d="M202.5-79.1h-1.1v-1.1h1.1V-79.1z M201.4-76.1h1.1v1.1h-1.1V-76.1z"/>
			<path class="st0" d="M0.8-72.2h2.6c0.6,0,1.5,0,1.9,0.3c0.5,0.3,0.8,0.8,0.8,1.5c0,0.8-0.4,1.3-1.1,1.6v0
				c0.9,0.2,1.4,0.8,1.4,1.7c0,1-0.8,2-2.2,2H0.8V-72.2z M1.7-69.1h1.9c1.1,0,1.5-0.4,1.5-1.1c0-1-0.7-1.1-1.5-1.1H1.7V-69.1z
				 M1.7-65.8h2.4c0.8,0,1.3-0.5,1.3-1.3c0-0.9-0.7-1.2-1.5-1.2H1.7V-65.8z"/>
			<path class="st0" d="M7.7-72.2h0.8v7.1H7.7V-72.2z"/>
			<path class="st0" d="M14.3-65h-0.8v-0.8h0c-0.4,0.6-0.9,0.9-1.7,0.9c-1.4,0-1.8-0.8-1.8-1.9v-3.4h0.8v3.5c0,0.6,0.4,1,1,1
				c1,0,1.5-0.7,1.5-1.6v-2.9h0.8V-65z"/>
			<path class="st0" d="M20.2-66.7c-0.2,1.1-1,1.8-2.2,1.8c-1.6,0-2.4-1.1-2.5-2.7c0-1.6,1-2.7,2.4-2.7c1.8,0,2.4,1.7,2.3,3h-3.9
				c0,0.9,0.5,1.7,1.6,1.7c0.7,0,1.2-0.3,1.3-1H20.2z M19.4-68.1c0-0.8-0.6-1.5-1.5-1.5c-0.9,0-1.4,0.7-1.5,1.5H19.4z"/>
			<path class="st0" d="M28.9-65.1c-0.1,0.1-0.4,0.1-0.6,0.1c-0.4,0-0.7-0.2-0.7-0.8c-0.5,0.6-1.1,0.8-1.8,0.8
				c-0.9,0-1.7-0.4-1.7-1.4c0-1.2,0.9-1.4,1.7-1.6c0.9-0.2,1.7-0.1,1.7-0.8c0-0.8-0.6-0.9-1.1-0.9c-0.7,0-1.2,0.2-1.3,1h-0.8
				c0.1-1.3,1-1.7,2.2-1.7c0.9,0,1.9,0.2,1.9,1.4v2.7c0,0.4,0,0.6,0.3,0.6c0.1,0,0.2,0,0.3,0V-65.1z M27.5-67.7
				c-0.7,0.5-2.6,0-2.6,1.3c0,0.6,0.5,0.8,1,0.8c1.1,0,1.6-0.7,1.6-1.2V-67.7z"/>
			<path class="st0" d="M29.9-70.2h0.8v0.8h0c0.4-0.6,0.9-0.9,1.7-0.9c1.4,0,1.8,0.8,1.8,1.9v3.4h-0.8v-3.5c0-0.6-0.4-1-1-1
				c-1,0-1.5,0.7-1.5,1.6v2.9h-0.8V-70.2z"/>
			<path class="st0" d="M40.3-65h-0.8v-0.7h0c-0.3,0.6-0.9,0.8-1.6,0.8c-1.6,0-2.4-1.3-2.4-2.7c0-1.5,0.8-2.7,2.4-2.7
				c0.5,0,1.3,0.2,1.7,0.8h0v-2.7h0.8V-65z M37.9-65.7c1.1,0,1.6-1,1.6-1.9c0-1-0.5-2-1.6-2c-1.2,0-1.5,1-1.5,2
				C36.3-66.6,36.8-65.7,37.9-65.7z"/>
			<path class="st0" d="M51.2-65h-1l-1.6-6h0L47-65h-1l-1.8-7.1h1l1.4,5.9h0l1.6-5.9h1l1.6,5.9h0l1.4-5.9h0.9L51.2-65z"/>
			<path class="st0" d="M54.1-72.2H55v2.7h0c0.3-0.6,1-0.9,1.6-0.9c1.4,0,1.8,0.8,1.8,1.9v3.4h-0.8v-3.5c0-0.6-0.4-1-1-1
				c-1,0-1.5,0.7-1.5,1.6v2.9h-0.8V-72.2z"/>
			<path class="st0" d="M60.8-71.1h-0.8v-1h0.8V-71.1z M59.9-70.2h0.8v5.2h-0.8V-70.2z"/>
			<path class="st0" d="M63.5-70.2h1v0.7h-1v3.2c0,0.4,0.1,0.5,0.6,0.5h0.4v0.7h-0.6c-0.9,0-1.2-0.2-1.2-1.1v-3.3h-0.9v-0.7h0.9
				v-1.5h0.8V-70.2z"/>
			<path class="st0" d="M69.9-66.7c-0.2,1.1-1,1.8-2.2,1.8c-1.6,0-2.4-1.1-2.5-2.7c0-1.6,1-2.7,2.4-2.7c1.8,0,2.4,1.7,2.3,3h-3.9
				c0,0.9,0.5,1.7,1.6,1.7c0.7,0,1.2-0.3,1.3-1H69.9z M69.1-68.1c0-0.8-0.6-1.5-1.5-1.5c-0.9,0-1.4,0.7-1.5,1.5H69.1z"/>
			<path class="st0" d="M71.1-66.1h1.1v1.1h-1.1V-66.1z"/>
			<path class="st0" d="M0.8-52.2h4.7v0.8H1.7v2.3H5v0.8H1.7v3.3H0.8V-52.2z"/>
			<path class="st0" d="M8.7-50.3c1.6,0,2.5,1.2,2.5,2.7c0,1.5-0.9,2.7-2.5,2.7c-1.6,0-2.5-1.2-2.5-2.7C6.1-49.1,7-50.3,8.7-50.3z
				 M8.7-45.7c0.9,0,1.6-0.7,1.6-1.9s-0.7-2-1.6-2c-0.9,0-1.6,0.7-1.6,2S7.8-45.7,8.7-45.7z"/>
			<path class="st0" d="M12.4-50.2h0.8v1.1h0c0.4-0.8,1-1.2,1.9-1.2v0.9c-1.4,0-1.9,0.8-1.9,2.1v2.3h-0.8V-50.2z"/>
			<path class="st0" d="M18.8-50.2h0.8v0.8h0c0.4-0.6,0.9-0.9,1.7-0.9c0.6,0,1.2,0.2,1.4,0.9c0.4-0.6,0.9-0.9,1.6-0.9
				c1,0,1.7,0.4,1.7,1.5v3.8h-0.8v-3.4c0-0.6-0.2-1.1-1-1.1s-1.3,0.5-1.3,1.3v3.2H22v-3.4c0-0.7-0.2-1.1-1-1.1c-1,0-1.4,0.9-1.4,1.3
				v3.2h-0.8V-50.2z"/>
			<path class="st0" d="M29.8-50.3c1.6,0,2.5,1.2,2.5,2.7c0,1.5-0.9,2.7-2.5,2.7c-1.6,0-2.5-1.2-2.5-2.7
				C27.3-49.1,28.1-50.3,29.8-50.3z M29.8-45.7c0.9,0,1.6-0.7,1.6-1.9s-0.7-2-1.6-2c-0.9,0-1.6,0.7-1.6,2S28.9-45.7,29.8-45.7z"/>
			<path class="st0" d="M33.5-50.2h0.8v1.1h0c0.4-0.8,1-1.2,1.9-1.2v0.9c-1.4,0-1.9,0.8-1.9,2.1v2.3h-0.8V-50.2z"/>
			<path class="st0" d="M41.4-46.7c-0.2,1.1-1,1.8-2.2,1.8c-1.6,0-2.4-1.1-2.5-2.7c0-1.6,1-2.7,2.4-2.7c1.8,0,2.4,1.7,2.3,3h-3.9
				c0,0.9,0.5,1.7,1.6,1.7c0.7,0,1.2-0.3,1.3-1H41.4z M40.6-48.1c0-0.8-0.6-1.5-1.5-1.5c-0.9,0-1.4,0.7-1.5,1.5H40.6z"/>
			<path class="st0" d="M50.1-45h-0.8v-0.7h0c-0.3,0.6-0.9,0.8-1.6,0.8c-1.6,0-2.4-1.3-2.4-2.7c0-1.5,0.8-2.7,2.4-2.7
				c0.5,0,1.3,0.2,1.7,0.8h0v-2.7h0.8V-45z M47.7-45.7c1.1,0,1.6-1,1.6-1.9c0-1-0.5-2-1.6-2c-1.2,0-1.5,1-1.5,2
				C46.1-46.6,46.6-45.7,47.7-45.7z"/>
			<path class="st0" d="M56-46.7c-0.2,1.1-1,1.8-2.2,1.8c-1.6,0-2.4-1.1-2.5-2.7c0-1.6,1-2.7,2.4-2.7c1.8,0,2.4,1.7,2.3,3h-3.9
				c0,0.9,0.5,1.7,1.6,1.7c0.7,0,1.2-0.3,1.3-1H56z M55.1-48.1c0-0.8-0.6-1.5-1.5-1.5c-0.9,0-1.4,0.7-1.5,1.5H55.1z"/>
			<path class="st0" d="M58.3-50.2h1v0.7h-1v3.2c0,0.4,0.1,0.5,0.6,0.5h0.4v0.7h-0.6c-0.9,0-1.2-0.2-1.2-1.1v-3.3h-0.9v-0.7h0.9
				v-1.5h0.8V-50.2z"/>
			<path class="st0" d="M65.1-45.1c-0.1,0.1-0.4,0.1-0.6,0.1c-0.4,0-0.7-0.2-0.7-0.8c-0.5,0.6-1.1,0.8-1.8,0.8
				c-0.9,0-1.7-0.4-1.7-1.4c0-1.2,0.9-1.4,1.7-1.6c0.9-0.2,1.7-0.1,1.7-0.8c0-0.8-0.6-0.9-1.1-0.9c-0.7,0-1.2,0.2-1.3,1h-0.8
				c0.1-1.3,1-1.7,2.2-1.7c0.9,0,1.9,0.2,1.9,1.4v2.7c0,0.4,0,0.6,0.3,0.6c0.1,0,0.2,0,0.3,0V-45.1z M63.7-47.7
				c-0.7,0.5-2.6,0-2.6,1.3c0,0.6,0.5,0.8,1,0.8c1.1,0,1.6-0.7,1.6-1.2V-47.7z"/>
			<path class="st0" d="M67-51.1h-0.8v-1H67V-51.1z M66.2-50.2H67v5.2h-0.8V-50.2z"/>
			<path class="st0" d="M68.5-52.2h0.8v7.1h-0.8V-52.2z"/>
			<path class="st0" d="M71.4-46.7c0,0.8,0.7,1,1.4,1c0.5,0,1.2-0.1,1.2-0.8c0-1.3-3.4-0.4-3.4-2.4c0-1,1-1.5,1.9-1.5
				c1.2,0,2,0.4,2.1,1.6h-0.8c-0.1-0.7-0.6-0.9-1.2-0.9c-0.5,0-1.1,0.1-1.1,0.7c0,0.6,0.9,0.7,1.7,0.9c0.8,0.2,1.7,0.5,1.7,1.5
				c0,1.2-1.1,1.6-2.2,1.6c-1.2,0-2.1-0.5-2.2-1.7H71.4z"/>
			<path class="st0" d="M79.5-46.7c0,0.8,0.7,1,1.4,1c0.5,0,1.2-0.1,1.2-0.8c0-1.3-3.4-0.4-3.4-2.4c0-1,1-1.5,1.9-1.5
				c1.2,0,2,0.4,2.1,1.6h-0.8c-0.1-0.7-0.6-0.9-1.2-0.9c-0.5,0-1.1,0.1-1.1,0.7c0,0.6,0.9,0.7,1.7,0.9c0.8,0.2,1.7,0.5,1.7,1.5
				c0,1.2-1.1,1.6-2.2,1.6c-1.2,0-2.1-0.5-2.2-1.7H79.5z"/>
			<path class="st0" d="M88.6-46.7c-0.2,1.1-1,1.8-2.2,1.8c-1.6,0-2.4-1.1-2.5-2.7c0-1.6,1-2.7,2.4-2.7c1.8,0,2.4,1.7,2.3,3h-3.9
				c0,0.9,0.5,1.7,1.6,1.7c0.7,0,1.2-0.3,1.3-1H88.6z M87.8-48.1c0-0.8-0.6-1.5-1.5-1.5c-0.9,0-1.4,0.7-1.5,1.5H87.8z"/>
			<path class="st0" d="M94.2-46.7c-0.2,1.1-1,1.8-2.2,1.8c-1.6,0-2.4-1.1-2.5-2.7c0-1.6,1-2.7,2.4-2.7c1.8,0,2.4,1.7,2.3,3h-3.9
				c0,0.9,0.5,1.7,1.6,1.7c0.7,0,1.2-0.3,1.3-1H94.2z M93.4-48.1c0-0.8-0.6-1.5-1.5-1.5c-0.9,0-1.4,0.7-1.5,1.5H93.4z"/>
			<path class="st0" d="M100.5-50.3c1.6,0,2.5,1.2,2.5,2.7c0,1.5-0.9,2.7-2.5,2.7c-1.6,0-2.5-1.2-2.5-2.7
				C98-49.1,98.9-50.3,100.5-50.3z M100.5-45.7c0.9,0,1.6-0.7,1.6-1.9s-0.7-2-1.6-2c-0.9,0-1.6,0.7-1.6,2S99.6-45.7,100.5-45.7z"/>
			<path class="st0" d="M108.5-45h-0.8v-0.8h0c-0.4,0.6-0.9,0.9-1.7,0.9c-1.4,0-1.8-0.8-1.8-1.9v-3.4h0.8v3.5c0,0.6,0.4,1,1,1
				c1,0,1.5-0.7,1.5-1.6v-2.9h0.8V-45z"/>
			<path class="st0" d="M109.9-50.2h0.8v1.1h0c0.4-0.8,1-1.2,1.9-1.2v0.9c-1.4,0-1.9,0.8-1.9,2.1v2.3h-0.8V-50.2z"/>
			<path class="st0" d="M116.5-52.2h2.6c0.6,0,1.5,0,1.9,0.3c0.5,0.3,0.8,0.8,0.8,1.5c0,0.8-0.4,1.3-1.1,1.6v0
				c0.9,0.2,1.4,0.8,1.4,1.7c0,1-0.8,2-2.2,2h-3.4V-52.2z M117.5-49.1h1.9c1.1,0,1.5-0.4,1.5-1.1c0-1-0.7-1.1-1.5-1.1h-1.9V-49.1z
				 M117.5-45.8h2.4c0.8,0,1.3-0.5,1.3-1.3c0-0.9-0.7-1.2-1.5-1.2h-2.2V-45.8z"/>
			<path class="st0" d="M123.4-50.2h0.8v1.1h0c0.4-0.8,1-1.2,1.9-1.2v0.9c-1.4,0-1.9,0.8-1.9,2.1v2.3h-0.8V-50.2z"/>
			<path class="st0" d="M131.6-45.1c-0.1,0.1-0.4,0.1-0.6,0.1c-0.4,0-0.7-0.2-0.7-0.8c-0.5,0.6-1.1,0.8-1.8,0.8
				c-0.9,0-1.7-0.4-1.7-1.4c0-1.2,0.9-1.4,1.7-1.6c0.9-0.2,1.7-0.1,1.7-0.8c0-0.8-0.6-0.9-1.1-0.9c-0.7,0-1.2,0.2-1.3,1h-0.8
				c0.1-1.3,1-1.7,2.2-1.7c0.9,0,1.9,0.2,1.9,1.4v2.7c0,0.4,0,0.6,0.3,0.6c0.1,0,0.2,0,0.3,0V-45.1z M130.2-47.7
				c-0.7,0.5-2.6,0-2.6,1.3c0,0.6,0.5,0.8,1,0.8c1.1,0,1.6-0.7,1.6-1.2V-47.7z"/>
			<path class="st0" d="M132.6-50.2h0.8v0.8h0c0.4-0.6,0.9-0.9,1.7-0.9c1.4,0,1.8,0.8,1.8,1.9v3.4h-0.8v-3.5c0-0.6-0.4-1-1-1
				c-1,0-1.5,0.7-1.5,1.6v2.9h-0.8V-50.2z"/>
			<path class="st0" d="M143-45h-0.8v-0.7h0c-0.3,0.6-0.9,0.8-1.6,0.8c-1.6,0-2.4-1.3-2.4-2.7c0-1.5,0.8-2.7,2.4-2.7
				c0.5,0,1.3,0.2,1.7,0.8h0v-2.7h0.8V-45z M140.6-45.7c1.1,0,1.6-1,1.6-1.9c0-1-0.5-2-1.6-2c-1.2,0-1.5,1-1.5,2
				C139-46.6,139.5-45.7,140.6-45.7z"/>
			<path class="st0" d="M152.9-45.9c-0.6,0.7-1.5,1.1-2.3,1.1c-2.1,0-3.4-1.7-3.4-3.6c0-2.1,1.1-3.9,3.4-3.9c1.5,0,2.8,0.7,3.1,2.4
				h-0.9c-0.2-1.1-1-1.6-2.1-1.6c-1.7,0-2.4,1.5-2.4,3c0,1.5,0.9,2.8,2.4,2.8c1.5,0,2.3-1,2.3-2.3h-2.3v-0.8h3.1v3.8h-0.6
				L152.9-45.9z"/>
			<path class="st0" d="M159.5-45h-0.8v-0.8h0c-0.4,0.6-0.9,0.9-1.7,0.9c-1.4,0-1.8-0.8-1.8-1.9v-3.4h0.8v3.5c0,0.6,0.4,1,1,1
				c1,0,1.5-0.7,1.5-1.6v-2.9h0.8V-45z"/>
			<path class="st0" d="M161.8-51.1H161v-1h0.8V-51.1z M161-50.2h0.8v5.2H161V-50.2z"/>
			<path class="st0" d="M168-45h-0.8v-0.7h0c-0.3,0.6-0.9,0.8-1.6,0.8c-1.6,0-2.4-1.3-2.4-2.7c0-1.5,0.8-2.7,2.4-2.7
				c0.5,0,1.3,0.2,1.7,0.8h0v-2.7h0.8V-45z M165.6-45.7c1.1,0,1.6-1,1.6-1.9c0-1-0.5-2-1.6-2c-1.2,0-1.5,1-1.5,2
				C164-46.6,164.5-45.7,165.6-45.7z"/>
			<path class="st0" d="M173.9-46.7c-0.2,1.1-1,1.8-2.2,1.8c-1.6,0-2.4-1.1-2.5-2.7c0-1.6,1-2.7,2.4-2.7c1.8,0,2.4,1.7,2.3,3h-3.9
				c0,0.9,0.5,1.7,1.6,1.7c0.7,0,1.2-0.3,1.3-1H173.9z M173.1-48.1c0-0.8-0.6-1.5-1.5-1.5c-0.9,0-1.4,0.7-1.5,1.5H173.1z"/>
			<path class="st0" d="M175.1-52.2h0.8v7.1h-0.8V-52.2z"/>
			<path class="st0" d="M178.3-51.1h-0.8v-1h0.8V-51.1z M177.5-50.2h0.8v5.2h-0.8V-50.2z"/>
			<path class="st0" d="M179.8-50.2h0.8v0.8h0c0.4-0.6,0.9-0.9,1.7-0.9c1.4,0,1.8,0.8,1.8,1.9v3.4h-0.8v-3.5c0-0.6-0.4-1-1-1
				c-1,0-1.5,0.7-1.5,1.6v2.9h-0.8V-50.2z"/>
			<path class="st0" d="M190-46.7c-0.2,1.1-1,1.8-2.2,1.8c-1.6,0-2.4-1.1-2.5-2.7c0-1.6,1-2.7,2.4-2.7c1.8,0,2.4,1.7,2.3,3h-3.9
				c0,0.9,0.5,1.7,1.6,1.7c0.7,0,1.2-0.3,1.3-1H190z M189.2-48.1c0-0.8-0.6-1.5-1.5-1.5c-0.9,0-1.4,0.7-1.5,1.5H189.2z"/>
			<path class="st0" d="M191.7-46.7c0,0.8,0.7,1,1.4,1c0.5,0,1.2-0.1,1.2-0.8c0-1.3-3.4-0.4-3.4-2.4c0-1,1-1.5,1.9-1.5
				c1.2,0,2,0.4,2.1,1.6h-0.8c-0.1-0.7-0.6-0.9-1.2-0.9c-0.5,0-1.1,0.1-1.1,0.7c0,0.6,0.9,0.7,1.7,0.9c0.8,0.2,1.7,0.5,1.7,1.5
				c0,1.2-1.1,1.6-2.2,1.6c-1.2,0-2.1-0.5-2.2-1.7H191.7z"/>
			<path class="st0" d="M196.6-46.1h1.1v1.1h-1.1V-46.1z"/>
		</g>
	</g>
	<g>
		<path class="st2" d="M101.3,446.3c-0.9,0-1.7,0.2-2.3,0.6s-0.9,0.9-0.9,1.7s0.3,1.3,0.9,1.7c0.6,0.4,1.8,0.8,3.8,1.3
			c1.9,0.5,3.4,1.1,4.3,2c1,0.8,1.5,2.1,1.5,3.7c0,1.6-0.6,3-1.8,4c-1.2,1-2.8,1.5-4.8,1.5c-2.9,0-5.5-1-7.8-3l2-2.4
			c1.9,1.6,3.9,2.5,5.9,2.5c1,0,1.8-0.2,2.4-0.7c0.6-0.4,0.9-1,0.9-1.7c0-0.7-0.3-1.3-0.8-1.7c-0.6-0.4-1.5-0.8-2.9-1.1
			c-1.4-0.3-2.4-0.6-3.1-0.9c-0.7-0.3-1.3-0.6-1.9-1.1c-1.1-0.8-1.7-2.1-1.7-3.9s0.6-3.1,1.9-4c1.3-0.9,2.8-1.4,4.7-1.4
			c1.2,0,2.4,0.2,3.6,0.6c1.2,0.4,2.2,0.9,3.1,1.7l-1.7,2.4c-0.6-0.5-1.3-0.9-2.3-1.2C103.1,446.5,102.2,446.3,101.3,446.3z"/>
		<path class="st2" d="M125.6,443.8v3h-10v5h9v2.8h-9v5h10.3v3h-13.5v-18.7H125.6z"/>
		<path class="st2" d="M143.1,443.8v3h-10v5h9v2.8h-9v5h10.3v3H130v-18.7H143.1z"/>
		<path class="st2" d="M147.5,443.8h3.2v9.1l8.6-9.1h4l-7.5,8.2l7.6,10.5h-3.8l-6.2-8.2l-2.7,2.9v5.3h-3.2V443.8z"/>
		<path class="st2" d="M166.4,462.6v-18.7h3.2v15.7h8.5v3H166.4z"/>
		<path class="st2" d="M196.7,460c-1.9,1.8-4.2,2.8-7,2.8c-2.8,0-5.1-0.9-7-2.8c-1.9-1.8-2.8-4.2-2.8-6.9s0.9-5.1,2.8-6.9
			c1.9-1.8,4.2-2.8,7-2.8c2.8,0,5.1,0.9,7,2.8s2.8,4.2,2.8,6.9S198.6,458.1,196.7,460z M194.3,448.3c-1.3-1.3-2.8-2-4.7-2
			c-1.9,0-3.4,0.7-4.7,2c-1.3,1.3-1.9,2.9-1.9,4.8c0,1.9,0.6,3.5,1.9,4.8c1.3,1.3,2.8,2,4.7,2c1.9,0,3.4-0.7,4.7-2
			c1.3-1.3,1.9-2.9,1.9-4.8C196.3,451.2,195.6,449.6,194.3,448.3z"/>
		<path class="st2" d="M216.5,453.5h3.2v6.4c-1.8,1.9-4.3,2.9-7.6,2.9c-2.8,0-5.1-0.9-7-2.7c-1.9-1.8-2.8-4.1-2.8-6.9
			c0-2.8,1-5.1,2.9-7c1.9-1.9,4.2-2.8,6.9-2.8c2.7,0,4.9,0.8,6.7,2.4l-1.7,2.4c-0.7-0.6-1.5-1.1-2.2-1.3c-0.7-0.2-1.6-0.4-2.6-0.4
			c-1.9,0-3.5,0.6-4.8,1.8c-1.3,1.2-1.9,2.8-1.9,4.8c0,2,0.6,3.6,1.9,4.8c1.3,1.2,2.8,1.8,4.5,1.8c1.8,0,3.3-0.4,4.5-1.2V453.5z"/>
		<path class="st2" d="M239.4,460c-1.9,1.8-4.2,2.8-7,2.8c-2.8,0-5.1-0.9-7-2.8c-1.9-1.8-2.8-4.2-2.8-6.9s0.9-5.1,2.8-6.9
			c1.9-1.8,4.2-2.8,7-2.8c2.8,0,5.1,0.9,7,2.8s2.8,4.2,2.8,6.9S241.3,458.1,239.4,460z M237.1,448.3c-1.3-1.3-2.8-2-4.7-2
			c-1.9,0-3.4,0.7-4.7,2c-1.3,1.3-1.9,2.9-1.9,4.8c0,1.9,0.6,3.5,1.9,4.8c1.3,1.3,2.8,2,4.7,2c1.9,0,3.4-0.7,4.7-2
			c1.3-1.3,1.9-2.9,1.9-4.8C239,451.2,238.4,449.6,237.1,448.3z"/>
		<path class="st2" d="M245.5,462.2c-0.4-0.4-0.6-0.9-0.6-1.4c0-0.6,0.2-1,0.6-1.4c0.4-0.4,0.9-0.6,1.4-0.6s1,0.2,1.4,0.6
			c0.4,0.4,0.6,0.9,0.6,1.4c0,0.6-0.2,1-0.6,1.4s-0.9,0.6-1.4,0.6S245.9,462.6,245.5,462.2z"/>
		<path class="st2" d="M267.3,443.8h3.2v18.7H267l-10.6-13.7v13.7h-3.2v-18.7h3.2l10.9,14V443.8z"/>
		<path class="st2" d="M288.8,443.8v3h-10v5h9v2.8h-9v5h10.3v3h-13.5v-18.7H288.8z"/>
		<path class="st2" d="M300.3,446.7v15.8h-3.2v-15.8h-5.7v-2.9h14.5v2.9H300.3z"/>
	</g>
</g>
</svg>
